<svg width="40" height="32" viewBox="0 0 40 32" fill="none" xmlns="http://www.w3.org/2000/svg">
<mask id="path-1-inside-1_291_1155" fill="white">
<path d="M7.12305 9.53516C9.98728 4.6017 15.8558 1.21973 22.6299 1.21973C32.2231 1.2199 39.9998 8.00243 40 16.3691C40 24.736 32.2232 31.5194 22.6299 31.5195C15.6634 31.5195 9.65505 27.942 6.88672 22.7793L0 32V0L7.12305 9.53516Z"/>
</mask>
<path d="M7.12305 9.53516C9.98728 4.6017 15.8558 1.21973 22.6299 1.21973C32.2231 1.2199 39.9998 8.00243 40 16.3691C40 24.736 32.2232 31.5194 22.6299 31.5195C15.6634 31.5195 9.65505 27.942 6.88672 22.7793L0 32V0L7.12305 9.53516Z" fill="#8CAEDD"/>
<path d="M7.12305 9.53516L5.52077 10.7321L7.33263 13.1575L8.85268 10.5393L7.12305 9.53516ZM22.6299 1.21973L22.6299 -0.780273H22.6299V1.21973ZM40 16.3691H42V16.3691L40 16.3691ZM22.6299 31.5195V33.5195H22.6299L22.6299 31.5195ZM6.88672 22.7793L8.64931 21.8342L7.1645 19.0651L5.28432 21.5825L6.88672 22.7793ZM0 32H-2V38.0201L1.6024 33.1968L0 32ZM0 0L1.60228 -1.19695L-2 -6.01909V0H0ZM7.12305 9.53516L8.85268 10.5393C11.3262 6.27891 16.5007 3.21973 22.6299 3.21973V1.21973V-0.780273C15.2109 -0.780273 8.64839 2.92449 5.39341 8.53098L7.12305 9.53516ZM22.6299 1.21973L22.6298 3.21973C31.3842 3.21988 37.9999 9.35517 38 16.3692L40 16.3691L42 16.3691C41.9998 6.64969 33.062 -0.780087 22.6299 -0.780273L22.6299 1.21973ZM40 16.3691H38C38 23.3834 31.3842 29.5194 22.6298 29.5195L22.6299 31.5195L22.6299 33.5195C33.0622 33.5193 42 26.0886 42 16.3691H40ZM22.6299 31.5195V29.5195C16.3242 29.5195 11.0348 26.2829 8.64931 21.8342L6.88672 22.7793L5.12413 23.7244C8.27533 29.6012 15.0026 33.5195 22.6299 33.5195V31.5195ZM6.88672 22.7793L5.28432 21.5825L-1.6024 30.8032L0 32L1.6024 33.1968L8.48912 23.9761L6.88672 22.7793ZM0 32H2V0H0H-2V32H0ZM0 0L-1.60228 1.19695L5.52077 10.7321L7.12305 9.53516L8.72533 8.3382L1.60228 -1.19695L0 0Z" fill="#24426D" mask="url(#path-1-inside-1_291_1155)"/>
</svg>
