<svg width="34" height="42" viewBox="0 0 34 42" fill="none" xmlns="http://www.w3.org/2000/svg">
<path d="M1.32238 40.5C2.58902 36.2966 4.88899 37.5117 5.72233 34.6547C8.02228 35.8041 8.85561 33.4397 12.0222 34.8846C11.8889 32.8814 9.52227 31.1081 6.35565 30.9768C5.12235 26.2151 7.96052 22.5019 17.7222 16.5606C17.5482 17.4394 17.4706 18.1458 17.4715 18.701C17.4774 22.4672 21.0943 19.2728 22.7538 15.6908C23.7567 13.526 24.0447 11.2197 22.3888 10.2227C26.2221 4.93569 26.9221 7.0702 33.4886 3.20288C33.5037 2.87914 33.5039 2.54834 33.4886 2.21012C33.0336 1.60819 32.6217 1.50682 31.522 1.61902C28.8887 -1.13946 21.4898 1.56374 13.0222 5.78953C11.5889 6.34777 7.85563 1.91455 3.68902 3.29379C2.95568 4.14758 7.85563 6.41345 7.85563 10.4526C1.93951 18.5316 1.10083 23.2877 3.12236 32.0933C0.789045 34.3591 -0.410949 39.1208 1.32238 40.5Z" fill="#EB8383"/>
<path d="M33.4886 3.20288C26.9221 7.0702 26.2221 4.93569 22.3888 10.2227C24.0447 11.2197 23.7567 13.526 22.7538 15.6908C28.3239 12.4477 33.2226 8.93079 33.4886 3.20288Z" fill="#F1F3FF"/>
<path d="M17.4715 18.701C17.4706 18.1458 17.5482 17.4394 17.7222 16.5606C7.96052 22.5019 5.12235 26.2151 6.35565 30.9768C7.07698 25.3737 12.0067 21.8806 17.4715 18.701Z" fill="#F1F3FF"/>
<path d="M6.35565 30.9768C9.52227 31.1081 11.8889 32.8814 12.0222 34.8846C8.8556 33.4397 8.02228 35.8041 5.72233 34.6547C4.88899 37.5117 2.58902 36.2966 1.32238 40.5C-0.410949 39.1208 0.789045 34.3591 3.12236 32.0933C1.10083 23.2877 1.93951 18.5316 7.85563 10.4526C7.85563 6.41345 2.95568 4.14758 3.68902 3.29379C7.85563 1.91455 11.5889 6.34777 13.0222 5.78953C21.4898 1.56374 28.8887 -1.13946 31.522 1.61902C32.6217 1.50682 33.0336 1.60819 33.4886 2.21012C33.5039 2.54834 33.5037 2.87914 33.4886 3.20288M6.35565 30.9768C7.07698 25.3737 12.0067 21.8806 17.4715 18.701M6.35565 30.9768C5.12235 26.2151 7.96052 22.5019 17.7222 16.5606C17.5482 17.4394 17.4706 18.1458 17.4715 18.701M33.4886 3.20288C26.9221 7.0702 26.2221 4.93569 22.3888 10.2227C24.0447 11.2197 23.7567 13.526 22.7538 15.6908M33.4886 3.20288C33.2226 8.93079 28.3239 12.4477 22.7538 15.6908M17.4715 18.701C17.4774 22.4672 21.0943 19.2728 22.7538 15.6908" stroke="#2D344B"/>
</svg>
