<svg width="17" height="34" viewBox="0 0 17 34" fill="none" xmlns="http://www.w3.org/2000/svg">
<path d="M1.66667 0C2.07489 5.38509e-05 2.4689 0.149927 2.77395 0.421192C3.07901 0.692457 3.2739 1.06625 3.32167 1.47167L3.33333 1.66667V25C3.33286 25.4248 3.1702 25.8334 2.87859 26.1423C2.58697 26.4512 2.18841 26.6371 1.76434 26.662C1.34027 26.6868 0.922701 26.5489 0.596946 26.2762C0.271191 26.0036 0.0618393 25.6168 0.0116666 25.195L0 25V1.66667C0 1.22464 0.175595 0.800716 0.488156 0.488156C0.800716 0.175595 1.22464 0 1.66667 0ZM15 0C15.4082 5.38509e-05 15.8022 0.149927 16.1073 0.421192C16.4123 0.692457 16.6072 1.06625 16.655 1.47167L16.6667 1.66667V25C16.6662 25.4248 16.5035 25.8334 16.2119 26.1423C15.9203 26.4512 15.5217 26.6371 15.0977 26.662C14.6736 26.6868 14.256 26.5489 13.9303 26.2762C13.6045 26.0036 13.3952 25.6168 13.345 25.195L13.3333 25V1.66667C13.3333 1.22464 13.5089 0.800716 13.8215 0.488156C14.134 0.175595 14.558 0 15 0Z" fill="#2D344B"/>
</svg>
