<svg width="112" height="111" viewBox="0 0 112 111" fill="none" xmlns="http://www.w3.org/2000/svg">
<path d="M6.17529 29.9121C6.17529 16.6573 16.9205 5.91211 30.1753 5.91211H82.1753C95.4301 5.91211 106.175 16.6573 106.175 29.9121V81.9121C106.175 95.1669 95.4301 105.912 82.1753 105.912H30.1753C16.9205 105.912 6.17529 95.1669 6.17529 81.9121V29.9121Z" fill="#D5E4F9"/>
<path d="M80.7261 0.169922L81.8198 0.833984L83.6167 2.49414L84.9644 3.76367L86.1558 3.58789L88.0698 3.31445L88.8511 3.29492C89.3619 3.33444 89.8535 3.47315 90.2964 3.72461L90.9214 4.17383L92.3667 5.48242L93.812 6.77148C94.2242 7.13971 94.5911 7.56591 94.8862 8.04102L95.8628 9.62305L96.7026 10.9707L97.9917 11.6152L99.5347 12.3574C99.9699 12.5709 100.345 12.8658 100.648 13.2168L101.332 14.4473L102.386 17.7285C102.468 17.9821 102.542 18.2287 102.621 18.4512L103.148 19.916L103.382 20.5996L106.117 21.498L109.242 22.4941C109.858 22.6945 110.917 23.1981 111.449 24.252L111.761 25.5215L111.957 29.584C112.012 30.7742 111.479 31.746 110.824 32.416L109.066 34.2129L107.386 35.9121L107.074 37.4551L106.703 39.252L107.035 41.0098L107.367 42.8262C107.451 43.2964 107.482 43.7736 107.464 44.252L107.386 46.0488L107.328 47.6113L108.207 49.3105L109.144 51.1074C109.556 51.8979 109.72 52.8296 109.476 53.7832L109.007 55.5801L108.558 57.377C108.524 57.5114 108.504 57.6493 108.5 57.7676L108.421 59.5645L108.363 60.9707L109.457 62.5332L110.707 64.3301C111.007 64.7642 111.256 65.3382 111.312 66.0098C111.367 66.6891 111.211 67.3118 110.941 67.8262L109.984 69.623L109.457 70.5996L110.101 71.6348L111.234 73.4316C111.661 74.1176 111.844 75.033 111.546 75.9707C111.288 76.7783 110.758 77.3053 110.375 77.6113L108.109 79.4277L106.488 80.6973L106.644 81.3613L107.015 83.1191L107.035 83.1387C107.053 83.1825 107.077 83.2588 107.132 83.3535L109.593 87.5723C109.913 88.1211 110.373 89.3085 109.652 90.541C109.06 91.551 108.051 91.8609 107.64 91.9668L104.75 92.709L103.265 93.0801L103.343 93.6074L103.636 95.7559C103.763 96.6793 103.579 97.7802 102.777 98.666L101.566 99.9941L100.355 101.342C99.8989 101.845 99.3397 102.221 98.7144 102.475L97.0151 103.158L95.9214 103.588L95.1597 105.678L94.2417 108.158C94.0436 108.695 93.423 109.905 91.9175 110.111C90.6767 110.277 89.7719 109.595 89.4565 109.33L87.0347 107.279L85.5308 106.01L85.1206 106.342L83.4995 107.572C82.662 108.213 81.5641 108.505 80.4331 108.178L78.6362 107.65L77.0151 107.182L75.4526 107.592L73.6558 108.061C73.2333 108.171 72.8 108.252 72.3667 108.295L68.7729 108.646C67.8956 108.733 67.0902 108.519 66.4097 108.139L64.6128 107.123L63.1675 106.322L61.8979 106.635L60.0815 107.064C60.0027 107.083 59.8974 107.116 59.769 107.182L57.9722 108.1L56.1753 109.037C55.2023 109.538 54.085 109.57 53.0698 109.096L51.2729 108.256L49.4565 107.396L47.6401 107.26L45.8433 107.143C45.6607 107.13 45.4788 107.112 45.2964 107.123L43.48 107.24L41.6831 107.357C41.3186 107.381 40.9542 107.402 40.5894 107.396L38.7925 107.357L36.9761 107.338C36.7613 107.335 36.5469 107.341 36.3315 107.357L34.5151 107.494L32.7183 107.631C31.8298 107.7 31.0058 107.465 30.3159 107.025L28.6558 105.971L27.6792 105.346L26.5854 105.814L24.73 106.596C24.0876 106.867 23.3926 107.003 22.6792 106.967L18.812 106.771C18.1563 106.739 17.4623 106.507 16.8784 105.99C16.3262 105.502 16.0287 104.916 15.8823 104.428L15.2378 102.221L14.8667 100.99L13.8315 100.854L11.7222 100.561C11.2165 100.488 10.6203 100.291 10.0815 99.8574C9.52645 99.4105 9.17652 98.837 9.00732 98.2559L7.95264 94.623C7.88941 94.4047 7.8271 94.2053 7.75732 94.0371L7.09326 92.4355L6.4292 90.8535C6.36342 90.6958 6.27744 90.5219 6.17529 90.3457L4.33936 87.1816C4.0224 86.6348 3.81677 86.0338 3.73389 85.4043L3.49951 83.5879L3.26514 81.791C3.2312 81.5313 3.1946 81.2693 3.14795 81.0098L2.81592 79.2129L2.50342 77.416C2.32704 76.436 2.5515 75.5165 2.9917 74.7793L5.14014 71.1855C5.28222 70.9478 5.41967 70.7113 5.53076 70.4824L6.40967 68.666L7.03467 67.3379L6.58545 66.0879L6.03857 64.5254L3.77295 62.7285L1.48779 60.9316C0.866139 60.4394 -0.0812096 59.4336 0.00341797 57.9238L0.19873 54.3301L0.569824 52.9238C0.771025 52.5102 1.04575 52.1584 1.31201 51.8691L2.95264 50.0723L3.44092 49.5449L2.91357 48.998L1.19482 47.2012C0.854547 46.8454 0.474766 46.3306 0.296387 45.6582C0.107568 44.9437 0.184543 44.2196 0.452637 43.5879L1.23389 41.7715L1.99561 39.9746L2.64014 38.9395C2.88279 38.6397 3.1563 38.382 3.42139 38.1582L5.55029 36.3613L5.97998 35.9902L5.58936 35.6582L3.49951 33.8613C3.12004 33.5335 2.57319 32.9302 2.38623 32.0254C2.17655 30.9953 2.53052 30.1056 2.9917 29.5254L4.35889 27.8066L5.70654 26.127L5.94092 24.7207L6.23389 23.0801L6.58545 21.9863C6.75283 21.6552 6.97598 21.3423 7.22998 21.0684L8.40186 19.7988L9.51514 18.6074L10.062 17.123L10.6284 15.5605C10.9407 14.7087 11.5568 14.0404 12.3472 13.627L13.8315 12.8457L14.5347 12.4551L14.8276 10.6191L15.1987 8.11914C15.2717 7.62642 15.4899 6.85675 16.1558 6.22461C16.901 5.51857 17.8141 5.35757 18.519 5.42383L21.8003 5.73633L22.7964 4.50586L24.2612 2.70898L25.1987 1.9082C25.6588 1.6562 26.2649 1.48841 26.9956 1.61523C27.6053 1.72228 28.0679 2.0025 28.4019 2.29883L29.0464 3.08008L29.4175 3.68555C29.8212 3.51131 30.1822 3.41105 30.4526 3.39258L32.269 3.27539L34.0659 3.1582H34.0073L35.8042 2.24023L37.6011 1.3418L38.6362 1.0293C39.0064 0.982211 39.3949 0.988138 39.7886 1.08789C40.1519 1.18098 40.4781 1.32784 40.7456 1.49805L41.4097 2.04492L43.2065 3.88086L44.9839 5.7168L46.6245 6.16602L47.562 6.43945L48.7925 5.38477L50.5894 3.8418C50.9726 3.51189 51.5097 3.1752 52.1909 3.04102C52.9056 2.90168 53.5964 3.01983 54.1831 3.29492L55.9995 4.13477L56.8784 4.56445L57.9331 3.7832L59.73 2.45508C60.1942 2.11112 60.7257 1.81807 61.2925 1.61523L64.8862 0.326172L65.9214 0.130859C66.9019 0.112603 67.7346 0.567938 68.3042 1.08789L70.1206 2.72852L71.9175 4.36914C72.0313 4.47324 72.0901 4.50417 72.0933 4.50586L73.8901 5.24805L74.3003 5.44336L75.394 3.91992L77.1909 1.41992C77.4741 1.02675 78.0834 0.311365 79.105 0.0722656C79.7154 -0.070242 80.2636 0.00507885 80.7261 0.169922ZM32.6206 9.75977C32.5869 9.94624 32.4972 10.3546 32.2104 10.7754C31.8689 11.2734 31.2479 11.7792 30.3745 11.8691C29.63 11.9441 29.0745 11.6777 28.8315 11.5371C28.3686 11.2689 28.0859 10.9087 28.0112 10.8145C27.885 10.6552 27.7842 10.4827 27.6987 10.3457L26.2925 8.11914L25.2183 9.4668C24.5265 10.3229 23.4459 10.9166 22.1519 10.7949L20.1011 10.5996L19.8862 10.5605L19.7886 11.3418L19.4175 13.8223C19.3001 14.6167 18.8944 15.8392 17.6401 16.498L16.1362 17.2793L15.1206 17.7871L14.7495 18.8418L14.1831 20.4043C13.9691 20.984 13.6545 21.5063 13.2456 21.9473L12.0542 23.2168L11.0972 24.2129L10.8628 25.5996L10.5698 27.2402C10.4299 28.0335 10.0618 28.6981 9.65186 29.2129L8.28467 30.9316L8.06982 31.1855L8.85107 31.8691L10.9409 33.666C11.3749 34.0411 12.0703 34.8417 12.0542 36.0488C12.0377 37.242 11.3294 38.0118 10.9019 38.373L6.64404 41.9668C6.62198 41.9854 6.58132 41.9916 6.56592 42.0059L5.82373 43.7441L5.53076 44.4668L6.52686 45.541L8.24561 47.3379C8.65522 47.7662 9.14522 48.4834 9.16357 49.4668C9.18138 50.4572 8.71711 51.2038 8.3042 51.6543L6.64404 53.4512L5.1792 55.0332L5.10107 56.4004L5.06201 57.3574L6.87842 58.8027L9.14404 60.5996C9.71345 61.0505 10.3431 61.7139 10.6675 62.6309L11.312 64.4277L11.937 66.2246C12.2758 67.1863 12.2011 68.1887 11.7808 69.0566L10.0229 72.6504C9.84449 73.0188 9.65172 73.3848 9.43701 73.7441L8.36279 75.541L7.50342 76.9668L7.73779 78.3145L8.06982 80.1309C8.1301 80.4667 8.18199 80.8091 8.22607 81.1465L8.46045 82.9434L8.67529 84.6621L9.59326 86.2637L10.5112 87.8457C10.7149 88.1973 10.8842 88.569 11.0386 88.9395L12.3667 92.1035C12.5155 92.4606 12.6465 92.8352 12.7573 93.2168L13.2847 95.0332L13.48 95.7559L14.5347 95.9121L16.644 96.2051C17.2381 96.2914 17.8691 96.5434 18.4019 97.0254C18.921 97.4965 19.2032 98.0716 19.3589 98.5879L20.0229 100.795L20.3354 101.85L20.9995 101.889L22.8745 101.947L24.6323 101.225L26.4878 100.424C27.2695 100.093 28.1186 100.063 28.9097 100.326L29.6909 100.697L31.3511 101.752L32.7183 102.611L34.1245 102.514L35.9214 102.377C36.3001 102.347 36.6944 102.332 37.0737 102.338L38.8706 102.357L40.6675 102.396C40.8998 102.4 41.1379 102.392 41.3706 102.377L44.9644 102.143C45.3777 102.116 45.8012 102.113 46.2144 102.143L48.0112 102.279L49.8081 102.396L50.7261 102.553C51.0255 102.633 51.3091 102.755 51.5854 102.885L53.3823 103.725L54.5151 104.252L55.687 103.666L57.4839 102.729C57.9496 102.489 58.4495 102.301 58.9683 102.182L62.562 101.361L63.9878 101.303L65.2573 101.752L67.0542 102.768L68.5972 103.646L70.0815 103.49L71.8784 103.314C72.0416 103.298 72.2126 103.281 72.3862 103.236L74.2026 102.768L75.9995 102.279L77.1128 102.143C77.4871 102.148 77.8605 102.212 78.2261 102.318L80.0229 102.846L81.0386 103.139L82.0737 102.377L83.6948 101.146L84.8667 100.58C85.2837 100.486 85.7264 100.494 86.1558 100.58C86.5256 100.655 86.854 100.778 87.1323 100.932L87.8159 101.42L90.2573 103.451L90.5503 103.705L91.3901 101.459L92.0933 100.229C92.4252 99.8233 92.8669 99.4521 93.4604 99.2129L95.1401 98.5293L96.7222 97.8848L97.855 96.6348L98.5776 95.8145L98.3823 94.2715L98.0894 92.1035C97.9799 91.2949 98.1745 90.3777 98.8315 89.6426C99.4006 89.0111 100.109 88.751 100.589 88.627L103.5 87.8652L103.91 87.748L102.816 85.8535C102.526 85.3551 102.267 84.7909 102.132 84.1738L101.761 82.416L101.371 80.6777C101 78.965 102.115 77.7942 102.738 77.2988L105.003 75.502L106.078 74.6426L105.863 74.291L104.75 72.4746C104.118 71.459 104.019 70.2204 104.613 69.0957L105.55 67.2988L106.019 66.3809L105.335 65.3848L104.105 63.5879C103.657 62.9411 103.326 62.1159 103.363 61.166L103.421 59.3691L103.5 57.5723C103.518 57.091 103.596 56.6117 103.714 56.1465L104.164 54.3496L104.496 53.002L103.773 51.6152L102.835 49.8184C102.504 49.1835 102.299 48.4569 102.328 47.6699L102.406 45.873L102.464 44.0762C102.469 43.9593 102.467 43.8302 102.445 43.7051L101.781 40.1113C101.67 39.4979 101.676 38.8654 101.8 38.2559L102.542 34.6621L103.011 33.4316C103.222 33.0759 103.48 32.7728 103.734 32.5137L105.492 30.7168L106.917 29.2324L106.859 27.7871L106.8 26.9668L104.574 26.2441L101.449 25.2285C101.063 25.1036 100.616 24.9264 100.199 24.6426C99.781 24.3573 99.228 23.8521 98.9487 23.0605L98.4214 21.5957L97.9136 20.1113C97.818 19.8405 97.7151 19.5459 97.6206 19.252L97.0933 17.6113L96.7417 16.5566L95.8042 16.1074L94.2612 15.3457C93.5465 14.995 92.9884 14.4654 92.6011 13.8418L91.6245 12.2598L90.6284 10.6777C90.596 10.6256 90.559 10.563 90.4917 10.502L89.0464 9.19336L88.0894 8.35352L86.8784 8.5293L84.9644 8.80273C83.7109 8.9805 82.6829 8.46263 81.9956 7.82617L80.1987 6.16602L80.0229 6.00977L79.4565 6.83008L77.6597 9.33008C77.3873 9.70825 76.9396 10.2152 76.2729 10.541C75.5002 10.917 74.6032 10.9625 73.7729 10.6191L71.9761 9.87695L70.1597 9.13477C69.5355 8.87503 69.0002 8.48259 68.5386 8.06055L66.7417 6.41992L65.5894 5.38477L64.769 5.67773L62.9722 6.32227C62.9389 6.33417 62.854 6.37792 62.7183 6.47852L60.9214 7.80664L59.105 9.13477C58.6948 9.4378 58.156 9.71076 57.5034 9.79883C56.8342 9.88798 56.2079 9.75958 55.6675 9.50586L53.8511 8.66602L53.0698 8.29492L52.0542 9.17383L50.2573 10.7168C49.5128 11.3578 48.3621 11.8788 47.0347 11.498L45.2378 10.9707L43.4409 10.4629C42.6024 10.2217 41.9435 9.7159 41.4487 9.21289L39.6519 7.37695L38.6558 6.38086L38.0503 6.71289L36.2534 7.61133C35.6912 7.89521 35.0674 8.09338 34.3979 8.13867L32.6792 8.23633V9.23242C32.6792 9.35185 32.6594 9.54391 32.6206 9.75977Z" fill="#4D2575"/>
</svg>
