<svg width="164" height="62" viewBox="0 0 164 62" fill="none" xmlns="http://www.w3.org/2000/svg">
<path d="M5.53076 43.9434H4.98682C3.90482 43.9434 3.00068 44.7006 2.77295 45.7139H6.13623V44.5488C6.13623 44.2147 5.86488 43.9434 5.53076 43.9434Z" fill="#D88F01" stroke="#2D344B"/>
<path d="M14.7744 15C9.98283 15 6.09786 18.8842 6.09766 23.6758V43.3301C6.09766 44.646 7.16456 45.7136 8.48047 45.7139H21.0674C22.3834 45.7137 23.4502 44.6461 23.4502 43.3301V23.6758C23.45 18.8844 19.5658 15.0002 14.7744 15Z" fill="#A6A9B1" stroke="#2D344B"/>
<path d="M24.0713 37.7998V41.915C25.1182 41.6339 25.6812 40.7221 25.9893 39.6826C26.1646 39.0907 26.2424 38.4976 26.2754 38.0479C26.2819 37.9588 26.2856 37.8755 26.2891 37.7998H24.0713Z" fill="#A6A9B1" stroke="#2D344B"/>
<path d="M10.3057 29.5195C7.92867 29.5198 6.00195 31.4472 6.00195 33.8242V44.6504C6.00195 45.2374 6.47753 45.7136 7.06445 45.7139H13.5469C14.134 45.7139 14.6104 45.2375 14.6104 44.6504V33.8242C14.6104 31.447 12.6828 29.5195 10.3057 29.5195Z" fill="#F1F3FF" stroke="#2D344B"/>
<path d="M11.0752 17.7256C9.2629 17.7256 7.78809 19.1873 7.78809 20.9961C7.78828 22.8047 9.26302 24.2656 11.0752 24.2656C12.8872 24.2654 14.3611 22.8046 14.3613 20.9961C14.3613 19.1874 12.8873 17.7258 11.0752 17.7256Z" fill="#F1F3FF" stroke="#2D344B"/>
<path d="M11.885 20.8221C11.885 20.8221 11.571 20.3199 11.246 20.1741C10.9548 20.0436 10.7253 19.9739 10.4314 20.0986C10.207 20.1938 10.1238 20.3337 9.98541 20.5333C9.80906 20.7876 9.7063 21.2736 9.7063 21.2736" stroke="#2D344B" stroke-width="2" stroke-linecap="round"/>
<path d="M0.198486 24.5328L6.82838 21.6641V24.5328H0.198486Z" fill="#FFAA05" stroke="#2D344B"/>
<path d="M0.198486 24.5329L6.82838 25.8672V24.5329H0.198486Z" fill="#D88F01" stroke="#2D344B"/>
<path d="M8.25903 44.23H6.56079C5.47898 44.2301 4.57563 44.9874 4.3479 46.0005H9.24829V45.2192C9.24826 44.6729 8.80537 44.23 8.25903 44.23Z" fill="#FFAA05" stroke="#2D344B"/>
<path d="M14.116 28.5776L13.0566 38.0542C12.7307 40.9689 14.8297 43.5928 17.7448 43.9148L19.3942 29.1608L14.116 28.5776Z" fill="url(#paint0_linear_302_708)"/>
<path d="M49.5378 5.96C49.9538 6.808 50.1618 7.752 50.1618 8.792C50.1618 9.832 49.9538 10.776 49.5378 11.624C49.1218 12.456 48.5858 13.12 47.9297 13.616C46.6018 14.64 45.2258 15.152 43.8018 15.152H40.8018V17.864C40.8018 18.232 40.7858 18.512 40.7538 18.704C40.7378 18.88 40.6658 19.088 40.5378 19.328C40.3138 19.76 39.6898 19.976 38.6658 19.976C37.5458 19.976 36.8898 19.68 36.6978 19.088C36.6018 18.816 36.5538 18.4 36.5538 17.84V4.52C36.5538 4.152 36.5618 3.88 36.5778 3.704C36.6098 3.512 36.6898 3.296 36.8178 3.056C37.0418 2.624 37.6658 2.408 38.6898 2.408H43.8258C45.2338 2.408 46.6018 2.92 47.9297 3.944C48.5858 4.44 49.1218 5.112 49.5378 5.96ZM43.8258 10.904C44.3058 10.904 44.7778 10.728 45.2418 10.376C45.7058 10.024 45.9378 9.496 45.9378 8.792C45.9378 8.088 45.7058 7.56 45.2418 7.208C44.7778 6.84 44.2978 6.656 43.8018 6.656H40.8018V10.904H43.8258ZM63.1833 12.176C63.1833 13.152 62.9353 13.88 62.4393 14.36C61.9593 14.824 61.4233 15.056 60.8313 15.056H55.1433C55.1433 15.504 55.4073 15.88 55.9353 16.184C56.4633 16.488 56.9913 16.64 57.5193 16.64C58.4473 16.64 59.1753 16.544 59.7033 16.352L59.9673 16.256C60.3513 16.08 60.6713 15.992 60.9273 15.992C61.4393 15.992 61.8793 16.352 62.2473 17.072C62.4553 17.504 62.5593 17.872 62.5593 18.176C62.5593 19.6 60.8553 20.312 57.4473 20.312C56.2633 20.312 55.2073 20.112 54.2793 19.712C53.3673 19.296 52.6553 18.752 52.1433 18.08C51.1353 16.784 50.6313 15.336 50.6313 13.736C50.6313 11.72 51.2793 10.112 52.5753 8.912C53.8873 7.696 55.5193 7.088 57.4713 7.088C59.6953 7.088 61.3273 7.872 62.3672 9.44C62.9113 10.272 63.1833 11.184 63.1833 12.176ZM58.1193 12.872C58.7273 12.872 59.0313 12.616 59.0313 12.104C59.0313 11.736 58.8873 11.44 58.5993 11.216C58.3273 10.992 57.9273 10.88 57.3993 10.88C56.8873 10.88 56.3753 11.096 55.8633 11.528C55.3513 11.944 55.0953 12.392 55.0953 12.872H58.1193ZM71.7811 7.352C73.3811 7.352 74.7091 7.968 75.7651 9.2C76.8371 10.416 77.3731 11.904 77.3731 13.664V17.888C77.3731 18.256 77.3571 18.536 77.3251 18.728C77.3091 18.904 77.2451 19.104 77.1331 19.328C76.9091 19.76 76.2851 19.976 75.2611 19.976C74.1251 19.976 73.4691 19.68 73.2931 19.088C73.1971 18.816 73.1491 18.408 73.1491 17.864V13.64C73.1491 12.984 72.9571 12.472 72.5731 12.104C72.2051 11.736 71.7011 11.552 71.0611 11.552C70.4371 11.552 69.9251 11.744 69.5251 12.128C69.1411 12.512 68.9491 13.016 68.9491 13.64V17.888C68.9491 18.256 68.9331 18.536 68.9011 18.728C68.8851 18.904 68.8131 19.104 68.6851 19.328C68.4771 19.76 67.8611 19.976 66.8371 19.976C65.8291 19.976 65.2131 19.76 64.9891 19.328C64.8771 19.088 64.8051 18.88 64.7731 18.704C64.7571 18.512 64.7491 18.232 64.7491 17.864V9.368C64.7491 9.016 64.7571 8.752 64.7731 8.576C64.8051 8.384 64.8851 8.176 65.0131 7.952C65.2371 7.552 65.8531 7.352 66.8611 7.352C67.8371 7.352 68.4371 7.536 68.6611 7.904C68.8211 8.176 68.9011 8.504 68.9011 8.888C68.9651 8.776 69.1091 8.616 69.3331 8.408C69.5571 8.2 69.7731 8.032 69.9811 7.904C70.5251 7.536 71.1251 7.352 71.7811 7.352ZM87.3198 18.416C86.7118 19.216 85.7438 19.616 84.4158 19.616C83.0878 19.616 81.8398 19.008 80.6718 17.792C79.5198 16.56 78.9438 15.128 78.9438 13.496C78.9438 11.864 79.5278 10.432 80.6958 9.2C81.8638 7.968 83.1438 7.352 84.5358 7.352C85.0798 7.352 85.5758 7.456 86.0238 7.664C86.4718 7.856 86.7758 8.04 86.9358 8.216C87.1118 8.376 87.2478 8.528 87.3438 8.672C87.3918 8.224 87.5518 7.888 87.8238 7.664C88.1118 7.424 88.5678 7.304 89.1918 7.304C89.8158 7.304 90.2718 7.352 90.5598 7.448C90.8478 7.544 91.0478 7.712 91.1598 7.952C91.2878 8.176 91.3598 8.376 91.3758 8.552C91.4078 8.728 91.4238 9 91.4238 9.368V19.304C91.4238 21.144 90.7838 22.624 89.5038 23.744C88.2238 24.88 86.7838 25.448 85.1838 25.448C83.9678 25.448 82.8078 25.152 81.7038 24.56C80.5998 23.968 80.0478 23.432 80.0478 22.952C80.0478 22.328 80.2878 21.776 80.7678 21.296C81.0718 20.96 81.3038 20.728 81.4638 20.6C81.6398 20.472 81.8398 20.408 82.0638 20.408C82.2878 20.408 82.5198 20.504 82.7598 20.696C83.5278 21.288 84.3598 21.584 85.2558 21.584C85.8638 21.584 86.3598 21.344 86.7438 20.864C87.1278 20.384 87.3198 19.808 87.3198 19.136V18.416ZM83.0478 13.52C83.0478 14.032 83.2478 14.496 83.6478 14.912C84.0638 15.328 84.5598 15.536 85.1358 15.536C85.7278 15.536 86.2158 15.328 86.5998 14.912C86.9838 14.48 87.1758 14.016 87.1758 13.52C87.1758 13.008 86.9918 12.536 86.6238 12.104C86.2558 11.656 85.7598 11.432 85.1358 11.432C84.5118 11.432 84.0078 11.648 83.6238 12.08C83.2398 12.512 83.0478 12.992 83.0478 13.52ZM98.9588 19.952C97.3428 19.952 95.9988 19.344 94.9268 18.128C93.8708 16.896 93.3428 15.4 93.3428 13.64V9.44C93.3428 9.056 93.3508 8.776 93.3668 8.6C93.3988 8.424 93.4708 8.216 93.5828 7.976C93.8068 7.544 94.4308 7.328 95.4548 7.328C96.5748 7.328 97.2308 7.632 97.4228 8.24C97.5188 8.496 97.5668 8.904 97.5668 9.464V13.664C97.5668 14.32 97.7508 14.832 98.1188 15.2C98.5028 15.568 99.0068 15.752 99.6308 15.752C100.271 15.752 100.783 15.56 101.167 15.176C101.567 14.792 101.767 14.288 101.767 13.664V9.416C101.767 9.048 101.775 8.776 101.791 8.6C101.823 8.408 101.903 8.192 102.031 7.952C102.239 7.536 102.855 7.328 103.879 7.328C104.887 7.328 105.503 7.544 105.727 7.976C105.839 8.216 105.903 8.432 105.919 8.624C105.951 8.8 105.967 9.072 105.967 9.44V17.936C105.967 18.288 105.951 18.56 105.919 18.752C105.903 18.928 105.831 19.128 105.703 19.352C105.463 19.768 104.847 19.976 103.855 19.976C102.879 19.976 102.279 19.784 102.055 19.4C101.895 19.128 101.815 18.8 101.815 18.416C101.751 18.528 101.607 18.688 101.383 18.896C101.159 19.104 100.943 19.28 100.735 19.424C100.191 19.776 99.5988 19.952 98.9588 19.952ZM107.898 9.464C107.898 9.096 107.906 8.824 107.922 8.648C107.954 8.456 108.026 8.24 108.138 8C108.362 7.584 108.986 7.376 110.01 7.376C110.778 7.376 111.322 7.512 111.642 7.784C111.914 8.008 112.058 8.352 112.074 8.816C112.09 8.976 112.098 9.208 112.098 9.512V17.912C112.098 18.28 112.082 18.56 112.05 18.752C112.034 18.928 111.962 19.136 111.834 19.376C111.626 19.792 111.01 20 109.986 20C108.978 20 108.362 19.784 108.138 19.352C108.026 19.112 107.954 18.904 107.922 18.728C107.906 18.552 107.898 18.272 107.898 17.888V9.464ZM111.834 5.024C111.722 5.248 111.514 5.408 111.21 5.504C110.906 5.6 110.498 5.648 109.986 5.648C109.49 5.648 109.09 5.6 108.786 5.504C108.482 5.408 108.266 5.24 108.138 5C108.026 4.76 107.954 4.552 107.922 4.376C107.906 4.184 107.898 3.904 107.898 3.536C107.898 3.168 107.906 2.896 107.922 2.72C107.954 2.528 108.026 2.32 108.138 2.096C108.362 1.664 108.986 1.448 110.01 1.448C111.018 1.448 111.626 1.664 111.834 2.096C111.962 2.336 112.034 2.552 112.05 2.744C112.082 2.92 112.098 3.192 112.098 3.56C112.098 3.928 112.082 4.208 112.05 4.4C112.034 4.576 111.962 4.784 111.834 5.024ZM121.047 7.352C122.647 7.352 123.975 7.968 125.031 9.2C126.103 10.416 126.639 11.904 126.639 13.664V17.888C126.639 18.256 126.623 18.536 126.591 18.728C126.575 18.904 126.511 19.104 126.399 19.328C126.175 19.76 125.551 19.976 124.527 19.976C123.391 19.976 122.735 19.68 122.559 19.088C122.463 18.816 122.415 18.408 122.415 17.864V13.64C122.415 12.984 122.223 12.472 121.839 12.104C121.471 11.736 120.967 11.552 120.327 11.552C119.703 11.552 119.191 11.744 118.791 12.128C118.407 12.512 118.215 13.016 118.215 13.64V17.888C118.215 18.256 118.199 18.536 118.167 18.728C118.151 18.904 118.079 19.104 117.951 19.328C117.743 19.76 117.127 19.976 116.103 19.976C115.095 19.976 114.479 19.76 114.255 19.328C114.143 19.088 114.071 18.88 114.039 18.704C114.023 18.512 114.015 18.232 114.015 17.864V9.368C114.015 9.016 114.023 8.752 114.039 8.576C114.071 8.384 114.151 8.176 114.279 7.952C114.503 7.552 115.119 7.352 116.127 7.352C117.103 7.352 117.703 7.536 117.927 7.904C118.087 8.176 118.167 8.504 118.167 8.888C118.231 8.776 118.375 8.616 118.599 8.408C118.823 8.2 119.039 8.032 119.247 7.904C119.791 7.536 120.391 7.352 121.047 7.352ZM45.5651 27.96C45.9811 28.808 46.1891 29.752 46.1891 30.792C46.1891 31.832 45.9811 32.776 45.5651 33.624C45.1491 34.456 44.6131 35.12 43.9571 35.616C42.6291 36.64 41.2531 37.152 39.8291 37.152H36.8291V39.864C36.8291 40.232 36.8131 40.512 36.7811 40.704C36.7651 40.88 36.6931 41.088 36.5651 41.328C36.3411 41.76 35.7171 41.976 34.6931 41.976C33.5731 41.976 32.9171 41.68 32.7251 41.088C32.6291 40.816 32.5811 40.4 32.5811 39.84V26.52C32.5811 26.152 32.5891 25.88 32.6051 25.704C32.6371 25.512 32.7171 25.296 32.8451 25.056C33.0691 24.624 33.6931 24.408 34.7171 24.408H39.8531C41.2611 24.408 42.6291 24.92 43.9571 25.944C44.6131 26.44 45.1491 27.112 45.5651 27.96ZM39.8531 32.904C40.3331 32.904 40.8051 32.728 41.2691 32.376C41.7331 32.024 41.9651 31.496 41.9651 30.792C41.9651 30.088 41.7331 29.56 41.2691 29.208C40.8051 28.84 40.3251 28.656 39.8291 28.656H36.8291V32.904H39.8531ZM55.9532 30.696C56.0492 29.8 56.6812 29.352 57.8492 29.352C58.4732 29.352 58.9372 29.4 59.2412 29.496C59.5452 29.592 59.7532 29.76 59.8652 30C59.9932 30.24 60.0652 30.456 60.0812 30.648C60.1132 30.824 60.1292 31.096 60.1292 31.464V39.864C60.1292 40.232 60.1132 40.512 60.0812 40.704C60.0652 40.88 60.0012 41.088 59.8892 41.328C59.6652 41.744 59.1132 41.952 58.2332 41.952C57.3692 41.952 56.7852 41.848 56.4812 41.64C56.1932 41.416 56.0252 41.096 55.9772 40.68C55.3852 41.528 54.3932 41.952 53.0012 41.952C51.6252 41.952 50.3452 41.32 49.1612 40.056C47.9772 38.792 47.3852 37.328 47.3852 35.664C47.3852 33.984 47.9772 32.52 49.1612 31.272C50.3612 30.008 51.6732 29.376 53.0972 29.376C53.6412 29.376 54.1372 29.472 54.5852 29.664C55.0332 29.856 55.3452 30.04 55.5212 30.216C55.6972 30.376 55.8412 30.536 55.9532 30.696ZM51.5852 35.688C51.5852 36.216 51.7932 36.696 52.2092 37.128C52.6252 37.544 53.1292 37.752 53.7212 37.752C54.3132 37.752 54.8012 37.536 55.1852 37.104C55.5852 36.672 55.7852 36.2 55.7852 35.688C55.7852 35.16 55.5932 34.672 55.2092 34.224C54.8412 33.776 54.3372 33.552 53.6972 33.552C53.0732 33.552 52.5612 33.776 52.1612 34.224C51.7772 34.672 51.5852 35.16 51.5852 35.688ZM70.634 29.496C70.938 29.592 71.186 29.76 71.378 30C71.586 30.224 71.69 30.592 71.69 31.104C71.69 31.616 71.538 32.176 71.234 32.784C70.93 33.392 70.49 33.696 69.914 33.696C69.626 33.696 69.346 33.632 69.074 33.504C68.818 33.376 68.474 33.312 68.042 33.312C67.61 33.312 67.202 33.464 66.818 33.768C66.45 34.072 66.266 34.44 66.266 34.872V39.912C66.266 40.28 66.25 40.56 66.218 40.752C66.202 40.928 66.13 41.136 66.002 41.376C65.762 41.792 65.138 42 64.13 42C63.362 42 62.81 41.864 62.474 41.592C62.218 41.368 62.074 41.024 62.042 40.56C62.042 40.4 62.042 40.168 62.042 39.864V31.44C62.042 31.072 62.05 30.8 62.066 30.624C62.098 30.432 62.17 30.224 62.282 30C62.506 29.568 63.13 29.352 64.154 29.352C65.114 29.352 65.714 29.536 65.954 29.904C66.13 30.16 66.218 30.424 66.218 30.696C66.298 30.584 66.41 30.448 66.554 30.288C66.714 30.128 67.042 29.912 67.538 29.64C68.034 29.368 68.466 29.232 68.834 29.232C69.218 29.232 69.538 29.256 69.794 29.304C70.05 29.336 70.33 29.4 70.634 29.496ZM80.4922 30.696C80.5882 29.8 81.2202 29.352 82.3882 29.352C83.0122 29.352 83.4762 29.4 83.7802 29.496C84.0842 29.592 84.2922 29.76 84.4042 30C84.5322 30.24 84.6042 30.456 84.6202 30.648C84.6522 30.824 84.6682 31.096 84.6682 31.464V39.864C84.6682 40.232 84.6522 40.512 84.6202 40.704C84.6042 40.88 84.5402 41.088 84.4282 41.328C84.2042 41.744 83.6522 41.952 82.7722 41.952C81.9082 41.952 81.3242 41.848 81.0202 41.64C80.7322 41.416 80.5642 41.096 80.5162 40.68C79.9242 41.528 78.9322 41.952 77.5402 41.952C76.1642 41.952 74.8842 41.32 73.7002 40.056C72.5162 38.792 71.9242 37.328 71.9242 35.664C71.9242 33.984 72.5162 32.52 73.7002 31.272C74.9002 30.008 76.2122 29.376 77.6362 29.376C78.1802 29.376 78.6762 29.472 79.1242 29.664C79.5722 29.856 79.8842 30.04 80.0602 30.216C80.2362 30.376 80.3802 30.536 80.4922 30.696ZM76.1242 35.688C76.1242 36.216 76.3322 36.696 76.7482 37.128C77.1642 37.544 77.6682 37.752 78.2602 37.752C78.8522 37.752 79.3402 37.536 79.7242 37.104C80.1242 36.672 80.3242 36.2 80.3242 35.688C80.3242 35.16 80.1322 34.672 79.7482 34.224C79.3802 33.776 78.8762 33.552 78.2362 33.552C77.6122 33.552 77.1002 33.776 76.7002 34.224C76.3162 34.672 76.1242 35.16 76.1242 35.688ZM95.0531 24.096C95.1811 23.856 95.3971 23.688 95.7011 23.592C96.0051 23.496 96.4051 23.448 96.9011 23.448C97.4131 23.448 97.8211 23.496 98.1251 23.592C98.4291 23.688 98.6371 23.856 98.7491 24.096C98.8771 24.336 98.9491 24.552 98.9651 24.744C98.9971 24.92 99.0131 25.192 99.0131 25.56V39.888C99.0131 40.256 98.9971 40.536 98.9651 40.728C98.9491 40.904 98.8771 41.104 98.7491 41.328C98.5091 41.76 97.8291 41.976 96.7091 41.976C95.6051 41.976 94.9891 41.584 94.8611 40.8C94.1891 41.568 93.2531 41.952 92.0531 41.952C90.6131 41.952 89.3011 41.328 88.1171 40.08C86.9331 38.816 86.3411 37.352 86.3411 35.688C86.3411 34.008 86.9331 32.536 88.1171 31.272C89.3171 30.008 90.6291 29.376 92.0531 29.376C93.2371 29.376 94.1571 29.776 94.8131 30.576V25.536C94.8131 25.168 94.8211 24.896 94.8371 24.72C94.8691 24.528 94.9411 24.32 95.0531 24.096ZM91.1651 37.128C91.5811 37.56 92.0851 37.776 92.6771 37.776C93.2691 37.776 93.7571 37.56 94.1411 37.128C94.5411 36.696 94.7411 36.224 94.7411 35.712C94.7411 35.184 94.5491 34.696 94.1651 34.248C93.7971 33.8 93.2931 33.576 92.6531 33.576C92.0131 33.576 91.5011 33.8 91.1171 34.248C90.7331 34.68 90.5411 35.16 90.5411 35.688C90.5411 36.216 90.7491 36.696 91.1651 37.128ZM100.925 31.464C100.925 31.096 100.933 30.824 100.949 30.648C100.981 30.456 101.053 30.24 101.165 30C101.389 29.584 102.013 29.376 103.037 29.376C103.805 29.376 104.349 29.512 104.669 29.784C104.941 30.008 105.085 30.352 105.101 30.816C105.117 30.976 105.125 31.208 105.125 31.512V39.912C105.125 40.28 105.109 40.56 105.077 40.752C105.061 40.928 104.989 41.136 104.861 41.376C104.653 41.792 104.037 42 103.013 42C102.005 42 101.389 41.784 101.165 41.352C101.053 41.112 100.981 40.904 100.949 40.728C100.933 40.552 100.925 40.272 100.925 39.888V31.464ZM104.861 27.024C104.749 27.248 104.541 27.408 104.237 27.504C103.933 27.6 103.525 27.648 103.013 27.648C102.517 27.648 102.117 27.6 101.813 27.504C101.509 27.408 101.293 27.24 101.165 27C101.053 26.76 100.981 26.552 100.949 26.376C100.933 26.184 100.925 25.904 100.925 25.536C100.925 25.168 100.933 24.896 100.949 24.72C100.981 24.528 101.053 24.32 101.165 24.096C101.389 23.664 102.013 23.448 103.037 23.448C104.045 23.448 104.653 23.664 104.861 24.096C104.989 24.336 105.061 24.552 105.077 24.744C105.109 24.92 105.125 25.192 105.125 25.56C105.125 25.928 105.109 26.208 105.077 26.4C105.061 26.576 104.989 26.784 104.861 27.024ZM107.138 40.872C106.834 40.68 106.682 40.376 106.682 39.96C106.682 39.544 106.986 38.912 107.594 38.064C107.77 37.792 108.05 37.656 108.434 37.656C108.834 37.656 109.37 37.856 110.042 38.256C110.714 38.64 111.322 38.832 111.866 38.832C112.842 38.832 113.33 38.64 113.33 38.256C113.33 37.952 112.794 37.728 111.722 37.584C110.714 37.44 109.714 37.064 108.722 36.456C108.258 36.168 107.874 35.72 107.57 35.112C107.266 34.488 107.114 33.752 107.114 32.904C107.114 30.376 108.85 29.112 112.322 29.112C113.458 29.112 114.626 29.384 115.826 29.928C116.386 30.184 116.666 30.504 116.666 30.888C116.666 31.272 116.49 31.744 116.138 32.304C115.786 32.864 115.426 33.144 115.058 33.144C114.866 33.144 114.506 33.024 113.978 32.784C113.466 32.544 112.906 32.424 112.298 32.424C111.354 32.424 110.882 32.6 110.882 32.952C110.882 33.432 111.426 33.744 112.514 33.888C113.57 34 114.594 34.304 115.586 34.8C116.05 35.024 116.434 35.416 116.738 35.976C117.058 36.52 117.218 37.208 117.218 38.04C117.218 38.872 117.058 39.584 116.738 40.176C116.434 40.752 116.002 41.184 115.442 41.472C114.418 41.968 113.13 42.216 111.578 42.216C110.042 42.216 108.562 41.768 107.138 40.872ZM130.976 34.176C130.976 35.152 130.728 35.88 130.232 36.36C129.752 36.824 129.216 37.056 128.624 37.056H122.936C122.936 37.504 123.2 37.88 123.728 38.184C124.256 38.488 124.784 38.64 125.312 38.64C126.24 38.64 126.968 38.544 127.496 38.352L127.76 38.256C128.144 38.08 128.464 37.992 128.72 37.992C129.232 37.992 129.672 38.352 130.04 39.072C130.248 39.504 130.352 39.872 130.352 40.176C130.352 41.6 128.648 42.312 125.24 42.312C124.056 42.312 123 42.112 122.072 41.712C121.16 41.296 120.448 40.752 119.936 40.08C118.928 38.784 118.424 37.336 118.424 35.736C118.424 33.72 119.072 32.112 120.368 30.912C121.68 29.696 123.312 29.088 125.264 29.088C127.488 29.088 129.12 29.872 130.16 31.44C130.704 32.272 130.976 33.184 130.976 34.176ZM125.912 34.872C126.52 34.872 126.824 34.616 126.824 34.104C126.824 33.736 126.68 33.44 126.392 33.216C126.12 32.992 125.72 32.88 125.192 32.88C124.68 32.88 124.168 33.096 123.656 33.528C123.144 33.944 122.888 34.392 122.888 34.872H125.912ZM66.8421 56.14C66.9921 56.5 67.0671 56.76 67.0671 56.92C67.0671 57.3 66.7571 57.62 66.1371 57.88C65.8171 58.02 65.5571 58.09 65.3571 58.09C65.1671 58.09 65.0071 58.045 64.8771 57.955C64.7571 57.855 64.6671 57.755 64.6071 57.655C64.5071 57.465 64.1171 56.56 63.4371 54.94L62.9721 54.97H61.0821V56.665C61.0821 56.895 61.0721 57.07 61.0521 57.19C61.0421 57.3 60.9971 57.43 60.9171 57.58C60.7771 57.85 60.3871 57.985 59.7471 57.985C59.0471 57.985 58.6371 57.8 58.5171 57.43C58.4571 57.26 58.4271 57 58.4271 56.65V48.325C58.4271 48.095 58.4321 47.925 58.4421 47.815C58.4621 47.695 58.5121 47.56 58.5921 47.41C58.7321 47.14 59.1221 47.005 59.7621 47.005H63.0021C63.8821 47.005 64.7371 47.325 65.5671 47.965C65.9671 48.275 66.2971 48.695 66.5571 49.225C66.8171 49.755 66.9471 50.345 66.9471 50.995C66.9471 52.125 66.5721 53.055 65.8221 53.785C66.0421 54.315 66.3821 55.1 66.8421 56.14ZM61.0821 52.315H63.0021C63.2921 52.315 63.5821 52.205 63.8721 51.985C64.1621 51.765 64.3071 51.435 64.3071 50.995C64.3071 50.555 64.1621 50.225 63.8721 50.005C63.5821 49.775 63.2821 49.66 62.9721 49.66H61.0821V52.315ZM72.7271 50.935C72.7871 50.375 73.1821 50.095 73.9121 50.095C74.3021 50.095 74.5921 50.125 74.7821 50.185C74.9721 50.245 75.1021 50.35 75.1721 50.5C75.2521 50.65 75.2971 50.785 75.3071 50.905C75.3271 51.015 75.3371 51.185 75.3371 51.415V56.665C75.3371 56.895 75.3271 57.07 75.3071 57.19C75.2971 57.3 75.2571 57.43 75.1871 57.58C75.0471 57.84 74.7021 57.97 74.1521 57.97C73.6121 57.97 73.2471 57.905 73.0571 57.775C72.8771 57.635 72.7721 57.435 72.7421 57.175C72.3721 57.705 71.7521 57.97 70.8821 57.97C70.0221 57.97 69.2221 57.575 68.4821 56.785C67.7421 55.995 67.3721 55.08 67.3721 54.04C67.3721 52.99 67.7421 52.075 68.4821 51.295C69.2321 50.505 70.0521 50.11 70.9421 50.11C71.2821 50.11 71.5921 50.17 71.8721 50.29C72.1521 50.41 72.3471 50.525 72.4571 50.635C72.5671 50.735 72.6571 50.835 72.7271 50.935ZM69.9971 54.055C69.9971 54.385 70.1271 54.685 70.3871 54.955C70.6471 55.215 70.9621 55.345 71.3321 55.345C71.7021 55.345 72.0071 55.21 72.2471 54.94C72.4971 54.67 72.6221 54.375 72.6221 54.055C72.6221 53.725 72.5021 53.42 72.2621 53.14C72.0321 52.86 71.7171 52.72 71.3171 52.72C70.9271 52.72 70.6071 52.86 70.3571 53.14C70.1171 53.42 69.9971 53.725 69.9971 54.055ZM79.0076 54.055C79.0076 54.475 79.1476 54.805 79.4276 55.045C79.7076 55.275 80.0026 55.39 80.3126 55.39C80.6326 55.39 80.9276 55.3 81.1976 55.12C81.4776 54.93 81.7026 54.835 81.8726 54.835C82.1726 54.835 82.5376 55.1 82.9676 55.63C83.1976 55.92 83.3126 56.18 83.3126 56.41C83.3126 56.79 83.0376 57.145 82.4876 57.475C81.9176 57.875 81.2176 58.075 80.3876 58.075C79.4576 58.075 78.5626 57.74 77.7026 57.07C77.2926 56.75 76.9576 56.325 76.6976 55.795C76.4376 55.255 76.3076 54.665 76.3076 54.025C76.3076 53.375 76.4376 52.79 76.6976 52.27C76.9576 51.74 77.2926 51.315 77.7026 50.995C78.5326 50.335 79.4176 50.005 80.3576 50.005C80.7376 50.005 81.1076 50.06 81.4676 50.17C81.8276 50.27 82.0926 50.37 82.2626 50.47L82.5026 50.62C82.6826 50.74 82.8226 50.835 82.9226 50.905C83.1826 51.105 83.3126 51.335 83.3126 51.595C83.3126 51.845 83.2076 52.13 82.9976 52.45C82.6376 53 82.2926 53.275 81.9626 53.275C81.7726 53.275 81.5026 53.165 81.1526 52.945C80.9726 52.775 80.7126 52.69 80.3726 52.69C80.0426 52.69 79.7326 52.81 79.4426 53.05C79.1526 53.29 79.0076 53.625 79.0076 54.055ZM84.2816 51.415C84.2816 51.185 84.2866 51.015 84.2966 50.905C84.3166 50.785 84.3616 50.65 84.4316 50.5C84.5716 50.24 84.9616 50.11 85.6016 50.11C86.0816 50.11 86.4216 50.195 86.6216 50.365C86.7916 50.505 86.8816 50.72 86.8916 51.01C86.9016 51.11 86.9066 51.255 86.9066 51.445V56.695C86.9066 56.925 86.8966 57.1 86.8766 57.22C86.8666 57.33 86.8216 57.46 86.7416 57.61C86.6116 57.87 86.2266 58 85.5866 58C84.9566 58 84.5716 57.865 84.4316 57.595C84.3616 57.445 84.3166 57.315 84.2966 57.205C84.2866 57.095 84.2816 56.92 84.2816 56.68V51.415ZM86.7416 48.64C86.6716 48.78 86.5416 48.88 86.3516 48.94C86.1616 49 85.9066 49.03 85.5866 49.03C85.2766 49.03 85.0266 49 84.8366 48.94C84.6466 48.88 84.5116 48.775 84.4316 48.625C84.3616 48.475 84.3166 48.345 84.2966 48.235C84.2866 48.115 84.2816 47.94 84.2816 47.71C84.2816 47.48 84.2866 47.31 84.2966 47.2C84.3166 47.08 84.3616 46.95 84.4316 46.81C84.5716 46.54 84.9616 46.405 85.6016 46.405C86.2316 46.405 86.6116 46.54 86.7416 46.81C86.8216 46.96 86.8666 47.095 86.8766 47.215C86.8966 47.325 86.9066 47.495 86.9066 47.725C86.9066 47.955 86.8966 48.13 86.8766 48.25C86.8666 48.36 86.8216 48.49 86.7416 48.64ZM92.4999 50.095C93.4999 50.095 94.3299 50.48 94.9899 51.25C95.6599 52.01 95.9949 52.94 95.9949 54.04V56.68C95.9949 56.91 95.9849 57.085 95.9649 57.205C95.9549 57.315 95.9149 57.44 95.8449 57.58C95.7049 57.85 95.3149 57.985 94.6749 57.985C93.9649 57.985 93.5549 57.8 93.4449 57.43C93.3849 57.26 93.3549 57.005 93.3549 56.665V54.025C93.3549 53.615 93.2349 53.295 92.9949 53.065C92.7649 52.835 92.4499 52.72 92.0499 52.72C91.6599 52.72 91.3399 52.84 91.0899 53.08C90.8499 53.32 90.7299 53.635 90.7299 54.025V56.68C90.7299 56.91 90.7199 57.085 90.6999 57.205C90.6899 57.315 90.6449 57.44 90.5649 57.58C90.4349 57.85 90.0499 57.985 89.4099 57.985C88.7799 57.985 88.3949 57.85 88.2549 57.58C88.1849 57.43 88.1399 57.3 88.1199 57.19C88.1099 57.07 88.1049 56.895 88.1049 56.665V51.355C88.1049 51.135 88.1099 50.97 88.1199 50.86C88.1399 50.74 88.1899 50.61 88.2699 50.47C88.4099 50.22 88.7949 50.095 89.4249 50.095C90.0349 50.095 90.4099 50.21 90.5499 50.44C90.6499 50.61 90.6999 50.815 90.6999 51.055C90.7399 50.985 90.8299 50.885 90.9699 50.755C91.1099 50.625 91.2449 50.52 91.3749 50.44C91.7149 50.21 92.0899 50.095 92.4999 50.095ZM102.212 57.01C101.832 57.51 101.227 57.76 100.397 57.76C99.5666 57.76 98.7866 57.38 98.0566 56.62C97.3366 55.85 96.9766 54.955 96.9766 53.935C96.9766 52.915 97.3416 52.02 98.0716 51.25C98.8016 50.48 99.6016 50.095 100.472 50.095C100.812 50.095 101.122 50.16 101.402 50.29C101.682 50.41 101.872 50.525 101.972 50.635C102.082 50.735 102.167 50.83 102.227 50.92C102.257 50.64 102.357 50.43 102.527 50.29C102.707 50.14 102.992 50.065 103.382 50.065C103.772 50.065 104.057 50.095 104.237 50.155C104.417 50.215 104.542 50.32 104.612 50.47C104.692 50.61 104.737 50.735 104.747 50.845C104.767 50.955 104.777 51.125 104.777 51.355V57.565C104.777 58.715 104.377 59.64 103.577 60.34C102.777 61.05 101.877 61.405 100.877 61.405C100.117 61.405 99.3916 61.22 98.7016 60.85C98.0116 60.48 97.6666 60.145 97.6666 59.845C97.6666 59.455 97.8166 59.11 98.1166 58.81C98.3066 58.6 98.4516 58.455 98.5516 58.375C98.6616 58.295 98.7866 58.255 98.9266 58.255C99.0666 58.255 99.2116 58.315 99.3616 58.435C99.8416 58.805 100.362 58.99 100.922 58.99C101.302 58.99 101.612 58.84 101.852 58.54C102.092 58.24 102.212 57.88 102.212 57.46V57.01ZM99.5416 53.95C99.5416 54.27 99.6666 54.56 99.9166 54.82C100.177 55.08 100.487 55.21 100.847 55.21C101.217 55.21 101.522 55.08 101.762 54.82C102.002 54.55 102.122 54.26 102.122 53.95C102.122 53.63 102.007 53.335 101.777 53.065C101.547 52.785 101.237 52.645 100.847 52.645C100.457 52.645 100.142 52.78 99.9016 53.05C99.6616 53.32 99.5416 53.62 99.5416 53.95Z" fill="#2D344B"/>
<path d="M157.672 43.9434H158.216C159.298 43.9434 160.202 44.7006 160.43 45.7139H157.067V44.5488C157.067 44.2147 157.338 43.9434 157.672 43.9434Z" fill="#D88F01" stroke="#2D344B"/>
<path d="M148.429 15C153.22 15 157.105 18.8842 157.105 23.6758V43.3301C157.105 44.646 156.039 45.7136 154.723 45.7139H142.136C140.82 45.7137 139.753 44.6461 139.753 43.3301V23.6758C139.753 18.8844 143.637 15.0002 148.429 15Z" fill="#A6A9B1" stroke="#2D344B"/>
<path d="M139.132 37.7998V41.915C138.085 41.6339 137.522 40.7221 137.214 39.6826C137.039 39.0907 136.961 38.4976 136.928 38.0479C136.921 37.9588 136.917 37.8755 136.914 37.7998H139.132Z" fill="#A6A9B1" stroke="#2D344B"/>
<path d="M152.897 29.5195C155.274 29.5198 157.201 31.4472 157.201 33.8242V44.6504C157.201 45.2374 156.726 45.7136 156.139 45.7139H149.656C149.069 45.7139 148.593 45.2375 148.593 44.6504V33.8242C148.593 31.447 150.52 29.5195 152.897 29.5195Z" fill="#F1F3FF" stroke="#2D344B"/>
<path d="M152.128 17.7256C153.94 17.7256 155.415 19.1873 155.415 20.9961C155.415 22.8047 153.94 24.2656 152.128 24.2656C150.316 24.2654 148.842 22.8046 148.842 20.9961C148.842 19.1874 150.316 17.7258 152.128 17.7256Z" fill="#F1F3FF" stroke="#2D344B"/>
<path d="M151.318 20.8221C151.318 20.8221 151.632 20.3199 151.957 20.1741C152.248 20.0436 152.478 19.9739 152.772 20.0986C152.996 20.1938 153.079 20.3337 153.218 20.5333C153.394 20.7876 153.497 21.2736 153.497 21.2736" stroke="#2D344B" stroke-width="2" stroke-linecap="round"/>
<path d="M163.005 24.5328L156.375 21.6641V24.5328H163.005Z" fill="#FFAA05" stroke="#2D344B"/>
<path d="M163.005 24.5329L156.375 25.8672V24.5329H163.005Z" fill="#D88F01" stroke="#2D344B"/>
<path d="M154.944 44.23H156.642C157.724 44.2301 158.627 44.9874 158.855 46.0005H153.955V45.2192C153.955 44.6729 154.398 44.23 154.944 44.23Z" fill="#FFAA05" stroke="#2D344B"/>
<path d="M149.087 28.5776L150.147 38.0542C150.472 40.9689 148.373 43.5928 145.458 43.9148L143.809 29.1608L149.087 28.5776Z" fill="url(#paint1_linear_302_708)"/>
<defs>
<linearGradient id="paint0_linear_302_708" x1="17.7448" y1="43.9148" x2="19.3752" y2="29.1587" gradientUnits="userSpaceOnUse">
<stop stop-color="#2D344B"/>
<stop offset="0.745192" stop-color="#A8B3C9"/>
</linearGradient>
<linearGradient id="paint1_linear_302_708" x1="145.458" y1="43.9148" x2="143.828" y2="29.1587" gradientUnits="userSpaceOnUse">
<stop stop-color="#2D344B"/>
<stop offset="0.745192" stop-color="#A8B3C9"/>
</linearGradient>
</defs>
</svg>
