<svg width="33" height="49" viewBox="0 0 33 49" fill="none" xmlns="http://www.w3.org/2000/svg">
<path d="M1.60345 11.6377L6.01724 10.5927V5.82282L1.60345 6.86776V11.6377Z" fill="#4D2575"/>
<path d="M6.01724 15.3627L10.431 14.3177V9.54782L6.01724 10.5927V15.3627Z" fill="#4D2575"/>
<path d="M1.60345 21.1775L6.01724 20.1326V15.3627L1.60345 16.4076V21.1775Z" fill="#4D2575"/>
<path d="M6.01724 24.9025L10.431 23.8576V19.0877L6.01724 20.1326V24.9025Z" fill="#4D2575"/>
<path d="M1.60345 30.7174L6.01724 29.6725V24.9025L1.60345 25.9475V30.7174Z" fill="#4D2575"/>
<path d="M6.01724 34.4424L10.431 33.3974V28.6275L6.01724 29.6725V34.4424Z" fill="#4D2575"/>
<path d="M14.8448 27.5826V22.8127L10.431 23.8576V28.6275L14.8448 27.5826Z" fill="#4D2575"/>
<path d="M14.8448 32.3525L19.2586 31.3076V26.5377L14.8448 27.5826V32.3525Z" fill="#4D2575"/>
<path d="M23.6724 25.4927V20.7228L19.2586 21.7677V26.5377L23.6724 25.4927Z" fill="#4D2575"/>
<path d="M28.0862 29.2177V24.4478L23.6724 25.4927V30.2627L28.0862 29.2177Z" fill="#4D2575"/>
<path d="M32.5 23.4029V18.6329L28.0862 19.6779V24.4478L32.5 23.4029Z" fill="#4D2575"/>
<path d="M28.0862 14.9079L23.6724 15.9529V20.7228L28.0862 19.6779V14.9079Z" fill="#4D2575"/>
<path d="M14.8448 18.0427V22.8127L19.2586 21.7677V16.9978L14.8448 18.0427Z" fill="#4D2575"/>
<path d="M14.8448 13.2728L10.431 14.3177V19.0877L14.8448 18.0427V13.2728Z" fill="#4D2575"/>
<path d="M14.8448 3.73296L10.431 4.77789V9.54782L14.8448 8.50288V3.73296Z" fill="#4D2575"/>
<path d="M19.2586 12.2279V7.45795L14.8448 8.50288V13.2728L19.2586 12.2279Z" fill="#4D2575"/>
<path d="M23.6724 1.64309L19.2586 2.68802V7.45795L23.6724 6.41302V1.64309Z" fill="#4D2575"/>
<path d="M28.0862 10.138V5.36808L23.6724 6.41302V11.1829L28.0862 10.138Z" fill="#4D2575"/>
<path d="M19.2586 16.9978L23.6724 15.9529V11.1829L19.2586 12.2279V16.9978Z" fill="#4D2575"/>
<path d="M32.5 13.863V9.09308L28.0862 10.138V14.9079L32.5 13.863Z" fill="#4D2575"/>
<path d="M32.5 4.32315V4.08902C32.5 1.77369 30.3393 0.0647624 28.0862 0.598156V5.36808L32.5 4.32315Z" fill="#4D2575"/>
<path d="M0.5 35.7486V47.5532C1.15146 47.3757 1.60345 46.784 1.60345 46.1088V35.4873L0.5 35.7486Z" fill="#4D2575"/>
<path d="M0.5 30.9786V35.7486L1.60345 35.4873V30.7174L0.5 30.9786Z" fill="#4D2575"/>
<path d="M0.5 26.2087V30.9786L1.60345 30.7174V25.9475L0.5 26.2087Z" fill="#4D2575"/>
<path d="M0.5 21.4388V26.2087L1.60345 25.9475V21.1775L0.5 21.4388Z" fill="#4D2575"/>
<path d="M0.5 16.6688V21.4388L1.60345 21.1775V16.4076L0.5 16.6688Z" fill="#4D2575"/>
<path d="M0.5 11.8989V16.6688L1.60345 16.4076V11.6377L0.5 11.8989Z" fill="#4D2575"/>
<path d="M1.60345 6.86776C0.956727 7.02086 0.5 7.59834 0.5 8.26294V11.8989L1.60345 11.6377V6.86776Z" fill="#4D2575"/>
<path d="M0.5 47.5532V30.9786M0.5 47.5532V35.7486M0.5 47.5532C1.15146 47.3757 1.60345 46.784 1.60345 46.1088V35.4873M0.5 35.7486V30.9786M0.5 35.7486L1.60345 35.4873M0.5 30.9786V26.2087M0.5 30.9786L1.60345 30.7174M32.5 23.4029C32.5 23.4029 32.5 24.1202 32.4999 25.0075C32.4998 26.8622 31.2231 28.4751 29.4183 28.9023C28.0862 29.2177 28.0862 29.2177 28.0862 29.2177M32.5 23.4029V18.6329M32.5 23.4029L28.0862 24.4478M0.5 26.2087V21.4388M0.5 26.2087L1.60345 25.9475M32.5 18.6329V13.863M32.5 18.6329L28.0862 19.6779M32.5 13.863V9.09308M32.5 13.863L28.0862 14.9079M0.5 21.4388V16.6688M0.5 21.4388L1.60345 21.1775M0.5 16.6688V11.8989M0.5 16.6688L1.60345 16.4076M32.5 9.09308V4.32315M32.5 9.09308L28.0862 10.138M32.5 4.32315V4.08902C32.5 1.77369 30.3393 0.0647624 28.0862 0.598156M32.5 4.32315L28.0862 5.36808M0.5 11.8989V8.26294C0.5 7.59834 0.956727 7.02086 1.60345 6.86776M0.5 11.8989L1.60345 11.6377M28.0862 5.36808V10.138M28.0862 5.36808V0.598156M28.0862 5.36808L23.6724 6.41302M28.0862 10.138V14.9079M28.0862 10.138L23.6724 11.1829M28.0862 0.598156L23.6724 1.64309M28.0862 29.2177L23.6724 30.2627M28.0862 29.2177V24.4478M23.6724 1.64309L19.2586 2.68802M23.6724 1.64309V6.41302M23.6724 30.2627L19.2586 31.3076M23.6724 30.2627V25.4927M19.2586 31.3076L14.8448 32.3525M19.2586 31.3076V26.5377M14.8448 32.3525L10.431 33.3974M14.8448 32.3525V27.5826M10.431 33.3974L6.01724 34.4424M10.431 33.3974V28.6275M6.01724 34.4424L1.60345 35.4873M6.01724 34.4424V29.6725M1.60345 35.4873V30.7174M1.60345 6.86776L6.01724 5.82282M1.60345 6.86776V11.6377M6.01724 5.82282L10.431 4.77789M6.01724 5.82282V10.5927M10.431 4.77789L14.8448 3.73296M10.431 4.77789V9.54782M14.8448 3.73296L19.2586 2.68802M14.8448 3.73296V8.50288M19.2586 2.68802V7.45795M1.60345 11.6377L6.01724 10.5927M1.60345 11.6377V16.4076M6.01724 10.5927L10.431 9.54782M6.01724 10.5927V15.3627M6.01724 15.3627L10.431 14.3177M6.01724 15.3627V20.1326M6.01724 15.3627L1.60345 16.4076M10.431 14.3177V9.54782M10.431 14.3177V19.0877M10.431 14.3177L14.8448 13.2728M10.431 9.54782L14.8448 8.50288M1.60345 21.1775L6.01724 20.1326M1.60345 21.1775V16.4076M1.60345 21.1775V25.9475M6.01724 20.1326L10.431 19.0877M6.01724 20.1326V24.9025M6.01724 24.9025L10.431 23.8576M6.01724 24.9025V29.6725M6.01724 24.9025L1.60345 25.9475M10.431 23.8576V19.0877M10.431 23.8576V28.6275M10.431 23.8576L14.8448 22.8127M10.431 19.0877L14.8448 18.0427M1.60345 30.7174L6.01724 29.6725M1.60345 30.7174V25.9475M6.01724 29.6725L10.431 28.6275M10.431 28.6275L14.8448 27.5826M14.8448 27.5826V22.8127M14.8448 27.5826L19.2586 26.5377M14.8448 22.8127L19.2586 21.7677M14.8448 22.8127V18.0427M19.2586 26.5377V21.7677M19.2586 26.5377L23.6724 25.4927M23.6724 25.4927V20.7228M23.6724 25.4927L28.0862 24.4478M23.6724 20.7228L19.2586 21.7677M23.6724 20.7228L28.0862 19.6779M23.6724 20.7228V15.9529M19.2586 21.7677V16.9978M28.0862 24.4478V19.6779M28.0862 19.6779V14.9079M28.0862 14.9079L23.6724 15.9529M23.6724 15.9529L19.2586 16.9978M23.6724 15.9529V11.1829M14.8448 18.0427L19.2586 16.9978M14.8448 18.0427V13.2728M19.2586 16.9978V12.2279M14.8448 13.2728V8.50288M14.8448 13.2728L19.2586 12.2279M14.8448 8.50288L19.2586 7.45795M19.2586 12.2279V7.45795M19.2586 12.2279L23.6724 11.1829M19.2586 7.45795L23.6724 6.41302M23.6724 6.41302V11.1829" stroke="#4D2575"/>
</svg>
