<svg width="112" height="111" viewBox="0 0 112 111" fill="none" xmlns="http://www.w3.org/2000/svg">
<path d="M6.17529 29.9121C6.17529 16.6573 16.9205 5.91211 30.1753 5.91211H82.1753C95.4301 5.91211 106.175 16.6573 106.175 29.9121V81.9121C106.175 95.1669 95.4301 105.912 82.1753 105.912H30.1753C16.9205 105.912 6.17529 95.1669 6.17529 81.9121V29.9121Z" fill="#D5E4F9"/>
<path d="M32.4253 5.76421L32.2613 3.2696H32.2613L32.4253 5.76421ZM34.2253 5.6459L34.3893 8.14052L34.2253 5.6459ZM35.1253 5.38909L36.2522 7.62071V7.62071L35.1253 5.38909ZM36.9253 4.48017L35.7984 2.24854V2.24854L36.9253 4.48017ZM38.7253 3.57124L39.8522 5.80287V5.80287L38.7253 3.57124ZM39.6253 3.8018L41.4082 2.04927V2.04927L39.6253 3.8018ZM41.4253 5.63297L39.6424 7.3855V7.3855L41.4253 5.63297ZM43.2253 7.46414L45.0082 5.71161L45.0082 5.71161L43.2253 7.46414ZM44.1253 8.05139L44.8165 5.64884L44.8165 5.64884L44.1253 8.05139ZM45.9253 8.56924L45.2341 10.9718V10.9718L45.9253 8.56924ZM47.7253 9.08709L48.4165 6.68454V6.68454L47.7253 9.08709ZM48.6253 8.82915L50.2564 10.7238L50.2564 10.7238L48.6253 8.82915ZM50.4253 7.27954L48.7942 5.38492L48.7942 5.38492L50.4253 7.27954ZM52.2253 5.72994L53.8564 7.62457V7.62457L52.2253 5.72994ZM53.1253 5.55449L54.1905 3.29279V3.29279L53.1253 5.55449ZM54.9253 6.40227L53.8601 8.66397V8.66397L54.9253 6.40227ZM56.7253 7.25006L57.7905 4.98837V4.98837L56.7253 7.25006ZM57.6253 7.1286L59.1136 9.13733V9.13733L57.6253 7.1286ZM59.4253 5.79496L57.937 3.78623V3.78623L59.4253 5.79496ZM61.2253 4.46132L62.7136 6.47005L62.7136 6.47005L61.2253 4.46132ZM62.1253 3.96686L62.9677 6.32065V6.32065L62.1253 3.96686ZM63.9253 3.32264L63.0829 0.968847V0.968847L63.9253 3.32264ZM65.7253 2.67842L66.5677 5.03221V5.03221L65.7253 2.67842ZM66.6253 2.9288L68.3122 1.08375L68.3122 1.08375L66.6253 2.9288ZM68.4253 4.57455L66.7383 6.4196V6.41961L68.4253 4.57455ZM70.2253 6.2203L71.9122 4.37524L71.9122 4.37524L70.2253 6.2203ZM71.1253 6.81863L72.0842 4.50984V4.50984L71.1253 6.81863ZM72.9253 7.56622L71.9664 9.87501V9.87501L72.9253 7.56622ZM74.7253 8.31381L75.6842 6.00503L75.6842 6.00502L74.7253 8.31381ZM75.6253 7.87594L77.6539 9.33705V9.33705L75.6253 7.87594ZM77.4253 5.37685L75.3967 3.91574V3.91574L77.4253 5.37685ZM79.2253 2.87777L81.2539 4.33888V4.33888L79.2253 2.87777ZM80.1219 2.66793L81.8236 0.836463V0.836461L80.1219 2.66793ZM81.9082 4.32765L80.2065 6.15911V6.15911L81.9082 4.32765ZM83.6945 5.98737L85.3961 4.15591V4.1559L83.6945 5.98737ZM84.6162 6.33409L84.9714 8.80872L84.6162 6.33409ZM86.5168 6.06124L86.1615 3.58661L86.5168 6.06124ZM88.4173 5.78839L88.7726 8.26302L88.4173 5.78839ZM89.2546 6.04368L90.9202 4.17929V4.17929L89.2546 6.04368ZM90.7031 7.33771L89.0376 9.2021L89.0376 9.2021L90.7031 7.33771ZM92.1517 8.63174L93.8172 6.76736L93.8172 6.76735L92.1517 8.63174ZM92.7601 9.35183L94.8838 8.03275L94.8838 8.03275L92.7601 9.35183ZM93.7454 10.9381L91.6217 12.2572V12.2572L93.7454 10.9381ZM94.7307 12.5244L96.8544 11.2054L96.8544 11.2053L94.7307 12.5244ZM95.3605 13.1087L96.4596 10.8633V10.8633L95.3605 13.1087ZM96.8946 13.8596L95.7955 16.105V16.105L96.8946 13.8596ZM98.4286 14.6105L99.5277 12.365V12.365L98.4286 14.6105ZM98.9442 15.2089L101.324 14.4438L101.324 14.4438L98.9442 15.2089ZM99.4724 16.852L97.0924 17.6172V17.6172L99.4724 16.852ZM100.001 18.4951L102.381 17.73L102.381 17.73L100.001 18.4951ZM100.263 19.276L102.621 18.4443L102.621 18.4443L100.263 19.276ZM100.785 20.7562L98.4278 21.5879V21.5879L100.785 20.7562ZM101.308 22.2365L103.665 21.4048V21.4048L101.308 22.2365ZM102.219 22.8587L102.987 20.4797V20.4797L102.219 22.8587ZM105.341 23.8673L104.573 26.2462L105.341 23.8673ZM108.464 24.8758L109.232 22.4969H109.232L108.464 24.8758ZM109.268 25.6363L111.765 25.5201V25.5201L109.268 25.6363ZM109.363 27.6697L106.865 27.786V27.786L109.363 27.6697ZM109.457 29.7031L111.954 29.5869V29.5869L109.457 29.7031ZM109.041 30.6615L110.828 32.4095L110.828 32.4095L109.041 30.6615ZM107.28 32.4615L105.493 30.7135V30.7135L107.28 32.4615ZM105.52 34.2615L107.307 36.0095L107.307 36.0095L105.52 34.2615ZM104.988 35.1615L107.438 35.6594V35.6594L104.988 35.1615ZM104.622 36.9615L102.172 36.4635V36.4636L104.622 36.9615ZM104.256 38.7615L106.706 39.2595V39.2594L104.256 38.7615ZM104.246 39.6615L106.706 39.2165L106.706 39.2165L104.246 39.6615ZM104.572 41.4615L102.112 41.9065V41.9065L104.572 41.4615ZM104.898 43.2615L107.358 42.8165V42.8165L104.898 43.2615ZM104.962 44.1615L107.46 44.2551V44.2551L104.962 44.1615ZM104.895 45.9615L102.396 45.8679V45.8679L104.895 45.9615ZM104.827 47.7615L107.325 47.8551V47.8551L104.827 47.7615ZM105.045 48.6615L107.261 47.5037L107.261 47.5037L105.045 48.6615ZM105.986 50.4615L103.77 51.6193V51.6193L105.986 50.4615ZM106.927 52.2615L109.142 51.1037V51.1037L106.927 52.2615ZM107.047 53.1615L109.469 53.7802V53.7802L107.047 53.1615ZM106.587 54.9615L104.165 54.3428V54.3428L106.587 54.9615ZM106.127 56.7615L108.55 57.3802L108.55 57.3802L106.127 56.7615ZM105.995 57.6615L108.493 57.7579V57.7579L105.995 57.6615ZM105.926 59.4615L103.427 59.3651V59.3651L105.926 59.4615ZM105.856 61.2615L108.354 61.3579V61.3579L105.856 61.2615ZM106.151 62.1615L108.205 60.7373L108.205 60.7373L106.151 62.1615ZM107.398 63.9615L105.344 65.3857L105.344 65.3857L107.398 63.9615ZM108.646 65.7615L110.701 64.3373V64.3372L108.646 65.7615ZM108.721 66.6615L110.932 67.8282L110.932 67.8282L108.721 66.6615ZM107.771 68.4615L105.56 67.2948V67.2948L107.771 68.4615ZM106.821 70.2615L109.032 71.4282L109.032 71.4282L106.821 70.2615ZM106.864 71.1615L108.986 69.8407L108.986 69.8407L106.864 71.1615ZM107.984 72.9615L105.861 74.2822L107.984 72.9615ZM109.104 74.7615L111.226 73.4408V73.4407L109.104 74.7615ZM108.818 75.6615L110.374 77.6184L110.374 77.6184L108.818 75.6615ZM106.554 77.4615L104.998 75.5046L106.554 77.4615ZM104.29 79.2615L105.846 81.2184L104.29 79.2615ZM103.819 80.148L106.262 79.6175L106.262 79.6175L103.819 80.148ZM104.198 81.894L101.755 82.4245L104.198 81.894ZM104.577 83.64L107.02 83.1095V83.1095L104.577 83.64ZM104.979 84.6045L107.139 83.3467L104.979 84.6045ZM106.208 86.7163L104.048 87.9741L106.208 86.7163ZM107.438 88.8281L109.598 87.5703L107.438 88.8281ZM107.019 89.5433L107.644 91.9641L107.644 91.9641L107.019 89.5433ZM104.115 90.2922L103.491 87.8714H103.491L104.115 90.2922ZM101.212 91.0411L101.836 93.4619H101.836L101.212 91.0411ZM100.56 91.7702L103.037 91.4307V91.4307L100.56 91.7702ZM100.857 93.9376L98.3803 94.277V94.277L100.857 93.9376ZM101.154 96.1049L103.631 95.7655V95.7655L101.154 96.1049ZM100.925 96.9816L102.778 98.6596L102.778 98.6596L100.925 96.9816ZM99.7126 98.321L97.8594 96.643H97.8594L99.7126 98.321ZM98.4998 99.6603L100.353 101.338L100.353 101.338L98.4998 99.6603ZM97.7738 100.166L98.7083 102.484L98.7083 102.484L97.7738 100.166ZM96.0826 100.847L95.1481 98.5284L96.0826 100.847ZM94.3913 101.529L95.3258 103.848H95.3258L94.3913 101.529ZM93.7387 102.321L96.0838 103.188L96.0838 103.188L93.7387 102.321ZM92.8195 104.81L90.4744 103.944L92.8195 104.81ZM91.9003 107.298L94.2454 108.165L94.2454 108.165L91.9003 107.298ZM91.0643 107.41L89.4545 109.323L91.0643 107.41ZM88.6393 105.369L90.2491 103.457L88.6393 105.369ZM86.2144 103.329L84.6046 105.241L86.2144 103.329ZM85.205 103.127L86.7236 105.113L86.7236 105.113L85.205 103.127ZM83.5923 104.36L82.0738 102.374H82.0738L83.5923 104.36ZM81.9797 105.593L83.4982 107.579L83.4982 107.579L81.9797 105.593ZM81.1265 105.77L80.4267 108.17L80.4267 108.17L81.1265 105.77ZM79.3265 105.245L80.0263 102.845H80.0263L79.3265 105.245ZM77.5265 104.72L76.8267 107.12H76.8267L77.5265 104.72ZM76.6265 104.707L77.2584 107.125H77.2584L76.6265 104.707ZM74.8265 105.177L74.1947 102.758H74.1947L74.8265 105.177ZM73.0265 105.647L73.6584 108.066L73.6584 108.066L73.0265 105.647ZM72.1265 105.809L72.373 108.297H72.373L72.1265 105.809ZM70.3265 105.987L70.0801 103.5H70.0801L70.3265 105.987ZM68.5265 106.166L68.773 108.653H68.773L68.5265 106.166ZM67.6265 105.958L66.4035 108.138H66.4035L67.6265 105.958ZM65.8265 104.948L67.0496 102.768H67.0496L65.8265 104.948ZM64.0265 103.939L62.8035 106.119H62.8035L64.0265 103.939ZM63.1265 103.79L63.6892 106.226H63.6893L63.1265 103.79ZM61.3265 104.206L60.7638 101.77L60.7638 101.77L61.3265 104.206ZM59.5265 104.622L60.0892 107.058L60.0893 107.058L59.5265 104.622ZM58.6265 104.957L59.7705 107.18L59.7705 107.18L58.6265 104.957ZM56.8265 105.884L55.6826 103.661H55.6826L56.8265 105.884ZM55.0265 106.81L56.1705 109.033H56.1705L55.0265 106.81ZM54.1265 106.83L53.0646 109.094H53.0646L54.1265 106.83ZM52.3265 105.986L53.3885 103.722L53.3885 103.722L52.3265 105.986ZM50.5265 105.141L49.4646 107.404L49.4646 107.404L50.5265 105.141ZM49.6265 104.898L49.448 107.391H49.448L49.6265 104.898ZM47.8265 104.769L48.0051 102.275H48.0051L47.8265 104.769ZM46.0265 104.64L45.8479 107.134L45.848 107.134L46.0265 104.64ZM45.1265 104.637L45.288 107.132H45.288L45.1265 104.637ZM43.3265 104.753L43.165 102.259H43.165L43.3265 104.753ZM41.5265 104.87L41.688 107.365H41.688L41.5265 104.87ZM40.6265 104.892L40.5853 107.391H40.5853L40.6265 104.892ZM38.8265 104.862L38.8677 102.362H38.8677L38.8265 104.862ZM37.0265 104.832L36.9853 107.332H36.9853L37.0265 104.832ZM36.1265 104.86L36.3225 107.352H36.3225L36.1265 104.86ZM34.3265 105.002L34.1305 102.509H34.1305L34.3265 105.002ZM32.5265 105.143L32.7225 107.636H32.7225L32.5265 105.143ZM31.6617 104.915L30.3191 107.023L30.3191 107.023L31.6617 104.915ZM30.0025 103.858L31.345 101.749L31.345 101.749L30.0025 103.858ZM28.3432 102.802L27.0007 104.911H27.0007L28.3432 102.802ZM27.4649 102.734L28.4382 105.037H28.4382L27.4649 102.734ZM25.6106 103.518L24.6373 101.215H24.6373L25.6106 103.518ZM23.7563 104.301L24.7296 106.604L24.7296 106.604L23.7563 104.301ZM22.8085 104.473L22.6833 106.97H22.6833L22.8085 104.473ZM20.8712 104.376L20.9964 101.879H20.9964L20.8712 104.376ZM18.934 104.279L18.8088 106.776H18.8088L18.934 104.279ZM18.2855 103.705L15.8902 104.421L18.2855 103.705ZM17.6287 101.508L20.0239 100.792L17.6287 101.508ZM16.9719 99.311L14.5766 100.027H14.5766L16.9719 99.311ZM16.2814 98.6864L15.927 101.161H15.9271L16.2814 98.6864ZM14.1763 98.385L14.5307 95.9102H14.5307L14.1763 98.385ZM12.0713 98.0836L11.717 100.558H11.717L12.0713 98.0836ZM11.4135 97.5539L9.01214 98.2492H9.01214L11.4135 97.5539ZM10.8874 95.7368L13.2887 95.0415L10.8874 95.7368ZM10.3612 93.9196L7.95986 94.6149H7.95986L10.3612 93.9196ZM10.0642 93.0682L7.75655 94.0298L7.75655 94.0298L10.0642 93.0682ZM9.40234 91.4798L11.71 90.5182H11.71L9.40234 91.4798ZM8.74046 89.8914L6.43279 90.853H6.43279L8.74046 89.8914ZM8.34501 89.0975L6.18206 90.3512L6.18206 90.3512L8.34501 89.0975ZM7.42507 87.5104L9.58802 86.2567H9.58802L7.42507 87.5104ZM6.50513 85.9232L4.34218 87.1768H4.34218L6.50513 85.9232ZM6.21618 85.0751L3.73726 85.3991L6.21618 85.0751ZM5.9803 83.2702L8.45923 82.9462L5.9803 83.2702ZM5.74443 81.4652L3.26551 81.7891V81.7891L5.74443 81.4652ZM5.60447 80.5639L3.144 81.0068H3.144L5.60447 80.5639ZM5.28053 78.7639L7.741 78.3211H7.741L5.28053 78.7639ZM4.95659 76.9639L2.49612 77.4068H2.49612L4.95659 76.9639ZM5.14451 76.0639L7.29053 77.3464H7.29053L5.14451 76.0639ZM6.22016 74.2639L4.07414 72.9815H4.07414L6.22016 74.2639ZM7.29581 72.4639L9.44183 73.7464L9.44183 73.7464L7.29581 72.4639ZM7.78265 71.5639L10.0327 72.6536H10.0327L7.78265 71.5639ZM8.65435 69.7639L6.40432 68.6743H6.40432L8.65435 69.7639ZM9.52606 67.9639L11.7761 69.0536H11.7761L9.52606 67.9639ZM9.58547 67.0639L7.22748 67.8945H7.22749L9.58547 67.0639ZM8.95143 65.2639L11.3094 64.4333V64.4333L8.95143 65.2639ZM8.31738 63.4639L5.95939 64.2945H5.95939L8.31738 63.4639ZM7.59059 62.5639L6.0386 64.5239L6.0386 64.5239L7.59059 62.5639ZM5.31747 60.7639L6.86946 58.804H6.86946L5.31747 60.7639ZM3.04434 58.9639L1.49235 60.9239L1.49235 60.9239L3.04434 58.9639ZM2.50129 58.0639L0.00520372 57.924L2.50129 58.0639ZM2.60218 56.2639L5.09826 56.4039L2.60218 56.2639ZM2.70307 54.4639L0.206992 54.324L2.70307 54.4639ZM3.14254 53.5639L4.98187 55.2571L4.98187 55.2571L3.14254 53.5639ZM4.79953 51.7639L2.9602 50.0708H2.9602L4.79953 51.7639ZM6.45652 49.9639L8.29584 51.6571L8.29584 51.6571L6.45652 49.9639ZM6.44033 49.0639L4.63372 50.792H4.63372L6.44033 49.0639ZM4.71861 47.2639L6.52522 45.5359L6.52522 45.5359L4.71861 47.2639ZM2.99688 45.4639L1.19027 47.192L1.19027 47.192L2.99688 45.4639ZM2.75905 44.5639L5.05739 45.5476H5.05739L2.75905 44.5639ZM3.52944 42.7639L1.2311 41.7803V41.7803L3.52944 42.7639ZM4.29983 40.9639L6.59818 41.9476H6.59818L4.29983 40.9639ZM5.02533 40.0639L6.63827 41.974H6.63827L5.02533 40.0639ZM7.15693 38.2639L5.54399 36.3539H5.54399L7.15693 38.2639ZM9.28854 36.4639L10.9015 38.374H10.9015L9.28854 36.4639ZM9.30056 35.5639L7.66619 37.4557L7.66619 37.4557L9.30056 35.5639ZM7.21707 33.7639L8.85144 31.8722H8.85144L7.21707 33.7639ZM5.13358 31.9639L3.49921 33.8557H3.49921L5.13358 31.9639ZM4.9546 31.0847L6.9101 32.6423H6.9101L4.9546 31.0847ZM6.32219 29.3677L4.36669 27.8102H4.36669L6.32219 29.3677ZM7.68977 27.6508L9.64526 29.2083H9.64527L7.68977 27.6508ZM8.1045 26.8087L10.5665 27.243L8.1045 26.8087ZM8.39585 25.1572L5.93387 24.7228H5.93387L8.39585 25.1572ZM8.6872 23.5057L11.1492 23.94L8.6872 23.5057ZM9.05388 22.7759L10.8871 24.4756H10.8871L9.05388 22.7759ZM10.2292 21.5082L8.39597 19.8085L8.39597 19.8085L10.2292 21.5082ZM11.4046 20.2405L13.2379 21.9403L13.2379 21.9403L11.4046 20.2405ZM11.841 19.5347L14.1882 20.3953V20.3953L11.841 19.5347ZM12.4114 17.9789L10.0642 17.1183L12.4114 17.9789ZM12.9818 16.4232L15.3291 17.2838L15.3291 17.2838L12.9818 16.4232ZM13.4966 15.8395L14.6555 18.0547L14.6555 18.0547L13.4966 15.8395ZM14.9854 15.0607L13.8266 12.8455H13.8266L14.9854 15.0607ZM16.4743 14.2818L17.6331 16.497L17.6331 16.497L16.4743 14.2818ZM16.9384 13.4647L19.4116 13.8302V13.8302L16.9384 13.4647ZM17.3063 10.9753L14.8332 10.6098V10.6098L17.3063 10.9753ZM17.6742 8.48593L20.1474 8.85142V8.85142L17.6742 8.48593ZM18.2802 7.91189L18.0462 10.4009L18.2802 7.91189ZM20.336 8.10514L20.57 5.61612L20.336 8.10514ZM22.3919 8.2984L22.1579 10.7874L22.3919 8.2984ZM23.2716 7.89403L25.2161 9.46527L25.2161 9.46527L23.2716 7.89403ZM24.7347 6.0833L22.7902 4.51206V4.51206L24.7347 6.0833ZM26.1978 4.27257L28.1424 5.84381L28.1424 5.84381L26.1978 4.27257ZM26.9248 4.39874L29.0458 3.07538V3.07538L26.9248 4.39874ZM28.3695 6.71417L26.2484 8.03754V8.03754L28.3695 6.71417ZM29.8141 9.0296L31.9351 7.70624V7.70623L29.8141 9.0296ZM30.1753 9.23882L32.6753 9.23883V9.23882L30.1753 9.23882ZM30.1753 7.76028L27.6753 7.76028V7.76029L30.1753 7.76028ZM30.1753 6.28174L32.6753 6.28174V6.28174L30.1753 6.28174ZM30.6253 5.88253L30.7893 8.37715L30.6253 5.88253ZM32.4253 5.76421L32.5893 8.25883L34.3893 8.14052L34.2253 5.6459L34.0613 3.15128L32.2613 3.2696L32.4253 5.76421ZM34.2253 5.6459L34.3893 8.14052C35.0621 8.09629 35.6875 7.90584 36.2522 7.62071L35.1253 5.38909L33.9984 3.15746C33.9788 3.16736 33.976 3.16665 33.9893 3.16286C34.0032 3.1589 34.0281 3.15347 34.0613 3.15128L34.2253 5.6459ZM35.1253 5.38909L36.2522 7.62071L38.0522 6.71179L36.9253 4.48017L35.7984 2.24854L33.9984 3.15746L35.1253 5.38909ZM36.9253 4.48017L38.0522 6.71179L39.8522 5.80287L38.7253 3.57124L37.5984 1.33962L35.7984 2.24854L36.9253 4.48017ZM38.7253 3.57124L39.8522 5.80287C39.5117 5.97478 39.043 6.0621 38.5549 5.93706C38.1261 5.82722 37.8948 5.60767 37.8424 5.55433L39.6253 3.8018L41.4082 2.04927C41.0557 1.69074 40.5245 1.28016 39.7957 1.09347C39.0076 0.89158 38.2389 1.01621 37.5984 1.33962L38.7253 3.57124ZM39.6253 3.8018L37.8424 5.55433L39.6424 7.3855L41.4253 5.63297L43.2082 3.88044L41.4082 2.04927L39.6253 3.8018ZM41.4253 5.63297L39.6424 7.3855L41.4424 9.21667L43.2253 7.46414L45.0082 5.71161L43.2082 3.88044L41.4253 5.63297ZM43.2253 7.46414L41.4424 9.21667C41.9373 9.7201 42.5949 10.2125 43.4341 10.4539L44.1253 8.05139L44.8165 5.64884C44.9378 5.68376 45.0132 5.7277 45.0414 5.74614C45.068 5.76348 45.0555 5.75981 45.0082 5.71161L43.2253 7.46414ZM44.1253 8.05139L43.4341 10.4539L45.2341 10.9718L45.9253 8.56924L46.6165 6.16669L44.8165 5.64884L44.1253 8.05139ZM45.9253 8.56924L45.2341 10.9718L47.0341 11.4896L47.7253 9.08709L48.4165 6.68454L46.6165 6.16669L45.9253 8.56924ZM47.7253 9.08709L47.0341 11.4896C48.3627 11.8719 49.5113 11.3652 50.2564 10.7238L48.6253 8.82915L46.9942 6.93452C47.0469 6.88921 47.2093 6.76353 47.4865 6.68408C47.7876 6.5978 48.1158 6.59803 48.4165 6.68454L47.7253 9.08709ZM48.6253 8.82915L50.2564 10.7238L52.0564 9.17417L50.4253 7.27954L48.7942 5.38492L46.9942 6.93452L48.6253 8.82915ZM50.4253 7.27954L52.0564 9.17417L53.8564 7.62457L52.2253 5.72994L50.5942 3.83531L48.7942 5.38492L50.4253 7.27954ZM52.2253 5.72994L53.8564 7.62457C53.772 7.69722 53.5378 7.87129 53.1537 7.94619C52.7368 8.02745 52.3479 7.95175 52.0601 7.81618L53.1253 5.55449L54.1905 3.29279C53.6027 3.01593 52.9138 2.89882 52.1969 3.03857C51.5127 3.17195 50.9786 3.5044 50.5942 3.83531L52.2253 5.72994ZM53.1253 5.55449L52.0601 7.81618L53.8601 8.66397L54.9253 6.40227L55.9905 4.14058L54.1905 3.29279L53.1253 5.55449ZM54.9253 6.40227L53.8601 8.66397L55.6601 9.51176L56.7253 7.25006L57.7905 4.98837L55.9905 4.14058L54.9253 6.40227ZM56.7253 7.25006L55.6601 9.51175C56.2028 9.76738 56.8368 9.89401 57.5097 9.80321C58.1646 9.71482 58.7028 9.44165 59.1136 9.13733L57.6253 7.1286L56.137 5.11987C56.2477 5.03782 56.486 4.89602 56.8409 4.84813C57.2138 4.79781 57.5478 4.87404 57.7905 4.98837L56.7253 7.25006ZM57.6253 7.1286L59.1136 9.13733L60.9136 7.80369L59.4253 5.79496L57.937 3.78623L56.137 5.11987L57.6253 7.1286ZM59.4253 5.79496L60.9136 7.80369L62.7136 6.47005L61.2253 4.46132L59.737 2.45259L57.937 3.78623L59.4253 5.79496ZM61.2253 4.46132L62.7136 6.47005C62.8493 6.36946 62.9344 6.33255 62.9677 6.32065L62.1253 3.96686L61.2829 1.61306C60.7161 1.8159 60.2012 2.10864 59.737 2.45259L61.2253 4.46132ZM62.1253 3.96686L62.9677 6.32065L64.7677 5.67643L63.9253 3.32264L63.0829 0.968847L61.2829 1.61306L62.1253 3.96686ZM63.9253 3.32264L64.7677 5.67643L66.5677 5.03221L65.7253 2.67842L64.8829 0.32463L63.0829 0.968847L63.9253 3.32264ZM65.7253 2.67842L66.5677 5.03221C66.2434 5.14828 65.8652 5.16916 65.5052 5.06902C65.1791 4.97829 64.993 4.82379 64.9384 4.77386L66.6253 2.9288L68.3122 1.08375C67.5502 0.387027 66.3057 -0.184595 64.8829 0.324631L65.7253 2.67842ZM66.6253 2.9288L64.9384 4.77386L66.7383 6.4196L68.4253 4.57455L70.1122 2.72949L68.3122 1.08375L66.6253 2.9288ZM68.4253 4.57455L66.7383 6.41961L68.5384 8.06535L70.2253 6.2203L71.9122 4.37524L70.1122 2.72949L68.4253 4.57455ZM70.2253 6.2203L68.5383 8.06535C69.0007 8.4881 69.5409 8.86765 70.1664 9.12742L71.1253 6.81863L72.0842 4.50984C72.1097 4.52042 72.0499 4.50108 71.9122 4.37524L70.2253 6.2203ZM71.1253 6.81863L70.1664 9.12742L71.9664 9.87501L72.9253 7.56622L73.8842 5.25743L72.0842 4.50984L71.1253 6.81863ZM72.9253 7.56622L71.9664 9.87501L73.7664 10.6226L74.7253 8.31381L75.6842 6.00502L73.8842 5.25743L72.9253 7.56622ZM74.7253 8.31381L73.7664 10.6226C74.5979 10.9679 75.495 10.9224 76.269 10.5458C76.9385 10.2201 77.3808 9.71619 77.6539 9.33705L75.6253 7.87594L73.5967 6.41482C73.5967 6.41482 73.5968 6.41469 73.597 6.41443C73.5972 6.41416 73.5975 6.41377 73.5979 6.41324C73.5987 6.4122 73.5999 6.4106 73.6015 6.4085C73.6048 6.40433 73.61 6.39787 73.6172 6.38945C73.6314 6.37301 73.6555 6.34651 73.6905 6.31371C73.7576 6.25076 73.8858 6.14498 74.0816 6.04974C74.2852 5.95065 74.5506 5.86918 74.8614 5.85811C75.1739 5.84699 75.4552 5.90992 75.6842 6.00503L74.7253 8.31381ZM75.6253 7.87594L77.6539 9.33705L79.4539 6.83797L77.4253 5.37685L75.3967 3.91574L73.5967 6.41483L75.6253 7.87594ZM77.4253 5.37685L79.4539 6.83797L81.2539 4.33888L79.2253 2.87777L77.1967 1.41665L75.3967 3.91574L77.4253 5.37685ZM79.2253 2.87777L81.2539 4.33888C81.2396 4.35869 81.1685 4.45536 81.0263 4.57082C80.8808 4.68902 80.6202 4.85912 80.2442 4.94714C79.33 5.16109 78.6619 4.72394 78.4202 4.49939L80.1219 2.66793L81.8236 0.836461C81.2842 0.335289 80.3177 -0.205193 79.1047 0.0787039C78.0831 0.317803 77.4799 1.02349 77.1967 1.41666L79.2253 2.87777ZM80.1219 2.66793L78.4202 4.49939L80.2065 6.15911L81.9082 4.32765L83.6098 2.49618L81.8236 0.836463L80.1219 2.66793ZM81.9082 4.32765L80.2065 6.15911L81.9928 7.81883L83.6945 5.98737L85.3961 4.1559L83.6098 2.49618L81.9082 4.32765ZM83.6945 5.98737L81.9928 7.81883C82.6812 8.45847 83.712 8.98952 84.9714 8.80872L84.6162 6.33409L84.2609 3.85946C84.5302 3.8208 84.7987 3.85518 85.0284 3.94159C85.2421 4.02198 85.3617 4.12393 85.3961 4.15591L83.6945 5.98737ZM84.6162 6.33409L84.9714 8.80872L86.872 8.53587L86.5168 6.06124L86.1615 3.58661L84.2609 3.85946L84.6162 6.33409ZM86.5168 6.06124L86.872 8.53587L88.7726 8.26302L88.4173 5.78839L88.0621 3.31376L86.1615 3.58661L86.5168 6.06124ZM88.4173 5.78839L88.7726 8.26302C88.6034 8.28731 88.3793 8.28389 88.1351 8.20941C87.8917 8.1352 87.7088 8.01503 87.5891 7.90808L89.2546 6.04368L90.9202 4.17929C90.1357 3.47845 89.1193 3.16199 88.0621 3.31376L88.4173 5.78839ZM89.2546 6.04368L87.5891 7.90807L89.0376 9.2021L90.7031 7.33771L92.3687 5.47332L90.9202 4.17929L89.2546 6.04368ZM90.7031 7.33771L89.0376 9.2021L90.4861 10.4961L92.1517 8.63174L93.8172 6.76735L92.3687 5.47332L90.7031 7.33771ZM92.1517 8.63174L90.4861 10.4961C90.5568 10.5592 90.6031 10.6172 90.6364 10.6709L92.7601 9.35183L94.8838 8.03275C94.5887 7.55764 94.2294 7.13559 93.8172 6.76736L92.1517 8.63174ZM92.7601 9.35183L90.6364 10.6709L91.6217 12.2572L93.7454 10.9381L95.8691 9.61905L94.8838 8.03275L92.7601 9.35183ZM93.7454 10.9381L91.6217 12.2572L92.607 13.8435L94.7307 12.5244L96.8544 11.2053L95.8691 9.61905L93.7454 10.9381ZM94.7307 12.5244L92.607 13.8435C92.995 14.4682 93.545 15.0035 94.2615 15.3542L95.3605 13.1087L96.4596 10.8633C96.5526 10.9088 96.6385 10.9682 96.7116 11.036C96.7835 11.1027 96.829 11.1645 96.8544 11.2054L94.7307 12.5244ZM95.3605 13.1087L94.2615 15.3542L95.7955 16.105L96.8946 13.8596L97.9937 11.6141L96.4596 10.8633L95.3605 13.1087ZM96.8946 13.8596L95.7955 16.105L97.3296 16.8559L98.4286 14.6105L99.5277 12.365L97.9937 11.6141L96.8946 13.8596ZM98.4286 14.6105L97.3296 16.8559C97.1785 16.782 97.0074 16.6623 96.8552 16.4856C96.7034 16.3094 96.613 16.126 96.5642 15.9741L98.9442 15.2089L101.324 14.4438C101.031 13.5306 100.401 12.7925 99.5277 12.365L98.4286 14.6105ZM98.9442 15.2089L96.5642 15.9741L97.0924 17.6172L99.4724 16.852L101.852 16.0869L101.324 14.4438L98.9442 15.2089ZM99.4724 16.852L97.0924 17.6172L97.6206 19.2603L100.001 18.4951L102.381 17.73L101.852 16.0869L99.4724 16.852ZM100.001 18.4951L97.6206 19.2602C97.7151 19.5542 97.8101 19.8368 97.9056 20.1076L100.263 19.276L102.621 18.4443C102.542 18.2217 102.462 17.9837 102.381 17.73L100.001 18.4951ZM100.263 19.276L97.9056 20.1076L98.4278 21.5879L100.785 20.7562L103.143 19.9246L102.621 18.4443L100.263 19.276ZM100.785 20.7562L98.4278 21.5879L98.95 23.0682L101.308 22.2365L103.665 21.4048L103.143 19.9246L100.785 20.7562ZM101.308 22.2365L98.95 23.0682C99.2292 23.8597 99.7731 24.3564 100.191 24.6416C100.611 24.9287 101.062 25.1122 101.45 25.2377L102.219 22.8587L102.987 20.4797C102.855 20.4371 102.894 20.4329 103.011 20.5125C103.125 20.5904 103.473 20.86 103.665 21.4048L101.308 22.2365ZM102.219 22.8587L101.45 25.2377L104.573 26.2462L105.341 23.8673L106.11 21.4883L102.987 20.4797L102.219 22.8587ZM105.341 23.8673L104.573 26.2462L107.695 27.2548L108.464 24.8758L109.232 22.4969L106.11 21.4883L105.341 23.8673ZM108.464 24.8758L107.695 27.2548C107.758 27.275 107.572 27.2307 107.337 27.0085C107.046 26.7334 106.796 26.2889 106.771 25.7526L109.268 25.6363L111.765 25.5201C111.674 23.5668 110.054 22.7623 109.232 22.4969L108.464 24.8758ZM109.268 25.6363L106.771 25.7526L106.865 27.786L109.363 27.6697L111.86 27.5535L111.765 25.5201L109.268 25.6363ZM109.363 27.6697L106.865 27.786L106.96 29.8194L109.457 29.7031L111.954 29.5869L111.86 27.5535L109.363 27.6697ZM109.457 29.7031L106.96 29.8194C106.95 29.5968 106.993 29.3815 107.072 29.2005C107.146 29.0303 107.23 28.9378 107.253 28.9135L109.041 30.6615L110.828 32.4095C111.483 31.7395 112.01 30.7771 111.954 29.5869L109.457 29.7031ZM109.041 30.6615L107.253 28.9135L105.493 30.7135L107.28 32.4615L109.068 34.2095L110.828 32.4095L109.041 30.6615ZM107.28 32.4615L105.493 30.7135L103.732 32.5135L105.52 34.2615L107.307 36.0095L109.068 34.2095L107.28 32.4615ZM105.52 34.2615L103.732 32.5135C103.223 33.0342 102.725 33.747 102.538 34.6636L104.988 35.1615L107.438 35.6594C107.374 35.976 107.23 36.0888 107.307 36.0095L105.52 34.2615ZM104.988 35.1615L102.538 34.6635L102.172 36.4635L104.622 36.9615L107.072 37.4594L107.438 35.6594L104.988 35.1615ZM104.622 36.9615L102.172 36.4636L101.807 38.2636L104.256 38.7615L106.706 39.2594L107.072 37.4594L104.622 36.9615ZM104.256 38.7615L101.807 38.2635C101.683 38.873 101.675 39.493 101.786 40.1065L104.246 39.6615L106.706 39.2165C106.707 39.22 106.708 39.2284 106.708 39.2395C106.708 39.2505 106.707 39.2579 106.706 39.2595L104.256 38.7615ZM104.246 39.6615L101.786 40.1065L102.112 41.9065L104.572 41.4615L107.032 41.0165L106.706 39.2165L104.246 39.6615ZM104.572 41.4615L102.112 41.9065L102.438 43.7065L104.898 43.2615L107.358 42.8165L107.032 41.0165L104.572 41.4615ZM104.898 43.2615L102.438 43.7065C102.46 43.8316 102.468 43.951 102.464 44.0679L104.962 44.1615L107.46 44.2551C107.478 43.7719 107.444 43.2914 107.358 42.8165L104.898 43.2615ZM104.962 44.1615L102.464 44.0679L102.396 45.8679L104.895 45.9615L107.393 46.0551L107.46 44.2551L104.962 44.1615ZM104.895 45.9615L102.396 45.8679L102.329 47.6679L104.827 47.7615L107.325 47.8551L107.393 46.0551L104.895 45.9615ZM104.827 47.7615L102.329 47.6679C102.299 48.4557 102.498 49.1839 102.83 49.8193L105.045 48.6615L107.261 47.5037C107.268 47.5166 107.287 47.5568 107.303 47.6222C107.319 47.6893 107.329 47.769 107.325 47.8551L104.827 47.7615ZM105.045 48.6615L102.83 49.8193L103.77 51.6193L105.986 50.4615L108.202 49.3037L107.261 47.5037L105.045 48.6615ZM105.986 50.4615L103.77 51.6193L104.711 53.4193L106.927 52.2615L109.142 51.1037L108.202 49.3037L105.986 50.4615ZM106.927 52.2615L104.711 53.4193C104.67 53.3414 104.619 53.2134 104.596 53.0425C104.573 52.8679 104.586 52.6956 104.625 52.5428L107.047 53.1615L109.469 53.7802C109.713 52.8251 109.556 51.895 109.142 51.1037L106.927 52.2615ZM107.047 53.1615L104.625 52.5428L104.165 54.3428L106.587 54.9615L109.009 55.5802L109.469 53.7802L107.047 53.1615ZM106.587 54.9615L104.165 54.3428L103.705 56.1428L106.127 56.7615L108.55 57.3802L109.009 55.5802L106.587 54.9615ZM106.127 56.7615L103.705 56.1428C103.586 56.6084 103.516 57.0834 103.497 57.5651L105.995 57.6615L108.493 57.7579C108.498 57.6396 108.515 57.5146 108.55 57.3802L106.127 56.7615ZM105.995 57.6615L103.497 57.5651L103.427 59.3651L105.926 59.4615L108.424 59.5579L108.493 57.7579L105.995 57.6615ZM105.926 59.4615L103.427 59.3651L103.358 61.1651L105.856 61.2615L108.354 61.3579L108.424 59.5579L105.926 59.4615ZM105.856 61.2615L103.358 61.1651C103.321 62.1153 103.648 62.9388 104.096 63.5857L106.151 62.1615L108.205 60.7373C108.218 60.7557 108.26 60.8212 108.297 60.9339C108.335 61.051 108.36 61.1966 108.354 61.3579L105.856 61.2615ZM106.151 62.1615L104.096 63.5857L105.344 65.3857L107.398 63.9615L109.453 62.5373L108.205 60.7373L106.151 62.1615ZM107.398 63.9615L105.344 65.3857L106.592 67.1857L108.646 65.7615L110.701 64.3372L109.453 62.5373L107.398 63.9615ZM108.646 65.7615L106.592 67.1857C106.499 67.0516 106.36 66.7893 106.329 66.4177C106.298 66.0343 106.395 65.7113 106.51 65.4948L108.721 66.6615L110.932 67.8282C111.204 67.3117 111.369 66.6887 111.312 66.0053C111.257 65.3337 111.002 64.7714 110.701 64.3373L108.646 65.7615ZM108.721 66.6615L106.51 65.4948L105.56 67.2948L107.771 68.4615L109.982 69.6282L110.932 67.8282L108.721 66.6615ZM107.771 68.4615L105.56 67.2948L104.61 69.0948L106.821 70.2615L109.032 71.4282L109.982 69.6282L107.771 68.4615ZM106.821 70.2615L104.61 69.0948C104.016 70.2202 104.109 71.4664 104.741 72.4823L106.864 71.1615L108.986 69.8407C109.078 69.9889 109.194 70.2475 109.21 70.5934C109.227 70.945 109.134 71.2354 109.032 71.4282L106.821 70.2615ZM106.864 71.1615L104.741 72.4823L105.861 74.2822L107.984 72.9615L110.106 71.6407L108.986 69.8407L106.864 71.1615ZM107.984 72.9615L105.861 74.2822L106.981 76.0823L109.104 74.7615L111.226 73.4407L110.106 71.6407L107.984 72.9615ZM109.104 74.7615L106.981 76.0822C106.878 75.9161 106.767 75.6735 106.719 75.3627C106.671 75.0438 106.702 74.7312 106.79 74.4544C106.953 73.9415 107.254 73.7107 107.262 73.7046L108.818 75.6615L110.374 77.6184C110.758 77.3123 111.296 76.7815 111.555 75.9686C111.853 75.0309 111.653 74.1267 111.226 73.4408L109.104 74.7615ZM108.818 75.6615L107.262 73.7046L104.998 75.5046L106.554 77.4615L108.11 79.4184L110.374 77.6184L108.818 75.6615ZM106.554 77.4615L104.998 75.5046L102.734 77.3046L104.29 79.2615L105.846 81.2184L108.11 79.4184L106.554 77.4615ZM104.29 79.2615L102.734 77.3046C102.111 77.8002 101.003 78.9648 101.375 80.6785L103.819 80.148L106.262 79.6175C106.371 80.1219 106.259 80.5759 106.096 80.8815C105.959 81.1396 105.817 81.2415 105.846 81.2184L104.29 79.2615ZM103.819 80.148L101.375 80.6785L101.755 82.4245L104.198 81.894L106.641 81.3635L106.262 79.6175L103.819 80.148ZM104.198 81.894L101.755 82.4245L102.134 84.1705L104.577 83.64L107.02 83.1095L106.641 81.3635L104.198 81.894ZM104.577 83.64L102.134 84.1705C102.269 84.7919 102.527 85.3612 102.818 85.8623L104.979 84.6045L107.139 83.3467C107.083 83.2504 107.05 83.181 107.032 83.1373C107.014 83.0932 107.015 83.085 107.02 83.1095L104.577 83.64ZM104.979 84.6045L102.818 85.8623L104.048 87.9741L106.208 86.7163L108.369 85.4585L107.139 83.3467L104.979 84.6045ZM106.208 86.7163L104.048 87.9741L105.277 90.0859L107.438 88.8281L109.598 87.5703L108.369 85.4585L106.208 86.7163ZM107.438 88.8281L105.277 90.0859C105.163 89.8891 104.747 89.0021 105.329 88.0081C105.568 87.5993 105.876 87.375 106.059 87.2682C106.239 87.1632 106.372 87.1283 106.395 87.1225L107.019 89.5433L107.644 91.9641C108.054 91.8581 109.052 91.5454 109.644 90.5337C110.366 89.3012 109.918 88.1191 109.598 87.5703L107.438 88.8281ZM107.019 89.5433L106.395 87.1225L103.491 87.8714L104.115 90.2922L104.74 92.713L107.644 91.9641L107.019 89.5433ZM104.115 90.2922L103.491 87.8714L100.587 88.6203L101.212 91.0411L101.836 93.4619L104.74 92.713L104.115 90.2922ZM101.212 91.0411L100.587 88.6203C100.104 88.7449 99.3924 89.0127 98.8219 89.6509C98.1634 90.3876 97.9722 91.2997 98.0832 92.1097L100.56 91.7702L103.037 91.4307C103.063 91.6232 103.066 91.8886 102.982 92.19C102.896 92.4992 102.741 92.7692 102.55 92.983C102.367 93.1876 102.182 93.3066 102.06 93.3707C101.94 93.4339 101.855 93.4569 101.836 93.4619L101.212 91.0411ZM100.56 91.7702L98.0832 92.1097L98.3803 94.277L100.857 93.9376L103.334 93.5981L103.037 91.4307L100.56 91.7702ZM100.857 93.9376L98.3803 94.277L98.6774 96.4444L101.154 96.1049L103.631 95.7655L103.334 93.5981L100.857 93.9376ZM101.154 96.1049L98.6774 96.4444C98.6666 96.3663 98.6554 96.1924 98.7152 95.9634C98.7784 95.7215 98.9023 95.4911 99.0721 95.3036L100.925 96.9816L102.778 98.6596C103.581 97.7738 103.758 96.6889 103.631 95.7655L101.154 96.1049ZM100.925 96.9816L99.0721 95.3036L97.8594 96.643L99.7126 98.321L101.566 99.999L102.778 98.6596L100.925 96.9816ZM99.7126 98.321L97.8594 96.643L96.6466 97.9823L98.4998 99.6603L100.353 101.338L101.566 99.999L99.7126 98.321ZM98.4998 99.6603L96.6466 97.9823C96.67 97.9566 96.701 97.9283 96.7387 97.902C96.7764 97.8758 96.8117 97.8579 96.8393 97.8468L97.7738 100.166L98.7083 102.484C99.3376 102.231 99.8947 101.845 100.353 101.338L98.4998 99.6603ZM97.7738 100.166L96.8394 97.8468L95.1481 98.5284L96.0826 100.847L97.0171 103.166L98.7083 102.484L97.7738 100.166ZM96.0826 100.847L95.1481 98.5284L93.4568 99.21L94.3913 101.529L95.3258 103.848L97.0171 103.166L96.0826 100.847ZM94.3913 101.529L93.4568 99.21C92.2699 99.6883 91.6782 100.684 91.3936 101.455L93.7387 102.321L96.0838 103.188C96.1056 103.129 95.9489 103.596 95.3258 103.848L94.3913 101.529ZM93.7387 102.321L91.3936 101.455L90.4744 103.944L92.8195 104.81L95.1646 105.676L96.0838 103.188L93.7387 102.321ZM92.8195 104.81L90.4744 103.944L89.5552 106.432L91.9003 107.298L94.2454 108.165L95.1646 105.676L92.8195 104.81ZM91.9003 107.298L89.5552 106.432C89.6005 106.309 90.0107 105.325 91.2447 105.16C91.7596 105.091 92.1556 105.22 92.3574 105.309C92.5559 105.397 92.663 105.488 92.6741 105.498L91.0643 107.41L89.4545 109.323C89.7655 109.585 90.661 110.282 91.9081 110.115C93.4207 109.913 94.0468 108.702 94.2454 108.165L91.9003 107.298ZM91.0643 107.41L92.6741 105.498L90.2491 103.457L88.6393 105.369L87.0295 107.282L89.4545 109.323L91.0643 107.41ZM88.6393 105.369L90.2491 103.457L87.8242 101.416L86.2144 103.329L84.6046 105.241L87.0295 107.282L88.6393 105.369ZM86.2144 103.329L87.8242 101.416C87.4587 101.108 86.8942 100.721 86.1494 100.571C85.2871 100.399 84.4015 100.594 83.6864 101.141L85.205 103.127L86.7236 105.113C86.5321 105.259 86.28 105.391 85.9758 105.461C85.6727 105.53 85.3937 105.519 85.1685 105.474C84.7601 105.393 84.5659 105.209 84.6046 105.241L86.2144 103.329ZM85.205 103.127L83.6864 101.141L82.0738 102.374L83.5923 104.36L85.1109 106.346L86.7236 105.113L85.205 103.127ZM83.5923 104.36L82.0738 102.374L80.4611 103.607L81.9797 105.593L83.4982 107.579L85.1109 106.346L83.5923 104.36ZM81.9797 105.593L80.4611 103.607C80.5757 103.519 80.7759 103.402 81.0568 103.343C81.3451 103.284 81.6143 103.308 81.8263 103.37L81.1265 105.77L80.4267 108.17C81.5605 108.501 82.6587 108.221 83.4982 107.579L81.9797 105.593ZM81.1265 105.77L81.8263 103.37L80.0263 102.845L79.3265 105.245L78.6267 107.645L80.4267 108.17L81.1265 105.77ZM79.3265 105.245L80.0263 102.845L78.2263 102.32L77.5265 104.72L76.8267 107.12L78.6267 107.645L79.3265 105.245ZM77.5265 104.72L78.2263 102.32C77.4959 102.107 76.7357 102.094 75.9947 102.288L76.6265 104.707L77.2584 107.125C77.1971 107.141 77.1219 107.152 77.0386 107.151C76.9553 107.15 76.8829 107.137 76.8267 107.12L77.5265 104.72ZM76.6265 104.707L75.9947 102.288L74.1947 102.758L74.8265 105.177L75.4584 107.596L77.2584 107.125L76.6265 104.707ZM74.8265 105.177L74.1947 102.758L72.3947 103.228L73.0265 105.647L73.6584 108.066L75.4584 107.596L74.8265 105.177ZM73.0265 105.647L72.3947 103.228C72.2175 103.274 72.0463 103.305 71.8801 103.321L72.1265 105.809L72.373 108.297C72.8067 108.254 73.2355 108.176 73.6584 108.066L73.0265 105.647ZM72.1265 105.809L71.8801 103.321L70.0801 103.5L70.3265 105.987L70.573 108.475L72.373 108.297L72.1265 105.809ZM70.3265 105.987L70.0801 103.5L68.2801 103.678L68.5265 106.166L68.773 108.653L70.573 108.475L70.3265 105.987ZM68.5265 106.166L68.2801 103.678C68.4065 103.665 68.5297 103.675 68.639 103.7C68.7455 103.725 68.8165 103.759 68.8496 103.777L67.6265 105.958L66.4035 108.138C67.085 108.521 67.8935 108.741 68.773 108.653L68.5265 106.166ZM67.6265 105.958L68.8496 103.777L67.0496 102.768L65.8265 104.948L64.6035 107.129L66.4035 108.138L67.6265 105.958ZM65.8265 104.948L67.0496 102.768L65.2496 101.758L64.0265 103.939L62.8035 106.119L64.6035 107.129L65.8265 104.948ZM64.0265 103.939L65.2496 101.758C64.4754 101.324 63.5425 101.128 62.5638 101.354L63.1265 103.79L63.6893 106.226C63.5253 106.264 63.3459 106.271 63.1696 106.242C62.998 106.214 62.8739 106.158 62.8035 106.119L64.0265 103.939ZM63.1265 103.79L62.5638 101.354L60.7638 101.77L61.3265 104.206L61.8892 106.642L63.6892 106.226L63.1265 103.79ZM61.3265 104.206L60.7638 101.77L58.9638 102.186L59.5265 104.622L60.0893 107.058L61.8893 106.642L61.3265 104.206ZM59.5265 104.622L58.9638 102.186C58.4437 102.306 57.9493 102.494 57.4826 102.734L58.6265 104.957L59.7705 107.18C59.9037 107.112 60.0093 107.076 60.0892 107.058L59.5265 104.622ZM58.6265 104.957L57.4826 102.734L55.6826 103.661L56.8265 105.884L57.9705 108.106L59.7705 107.18L58.6265 104.957ZM56.8265 105.884L55.6826 103.661L53.8826 104.587L55.0265 106.81L56.1705 109.033L57.9705 108.106L56.8265 105.884ZM55.0265 106.81L53.8826 104.587C54.0272 104.513 54.2464 104.438 54.5198 104.431C54.7948 104.425 55.0258 104.491 55.1885 104.567L54.1265 106.83L53.0646 109.094C54.0811 109.571 55.1958 109.534 56.1705 109.033L55.0265 106.81ZM54.1265 106.83L55.1885 104.567L53.3885 103.722L52.3265 105.986L51.2646 108.249L53.0646 109.094L54.1265 106.83ZM52.3265 105.986L53.3885 103.722L51.5885 102.878L50.5265 105.141L49.4646 107.404L51.2646 108.249L52.3265 105.986ZM50.5265 105.141L51.5885 102.878C51.0389 102.62 50.4409 102.45 49.8051 102.404L49.6265 104.898L49.448 107.391C49.4406 107.391 49.4346 107.39 49.4301 107.389C49.4257 107.388 49.4235 107.388 49.4239 107.388C49.4244 107.388 49.4377 107.392 49.4646 107.404L50.5265 105.141ZM49.6265 104.898L49.8051 102.404L48.0051 102.275L47.8265 104.769L47.648 107.262L49.448 107.391L49.6265 104.898ZM47.8265 104.769L48.0051 102.275L46.2051 102.146L46.0265 104.64L45.848 107.134L47.648 107.262L47.8265 104.769ZM46.0265 104.64L46.2051 102.146C45.7919 102.117 45.3783 102.115 44.965 102.142L45.1265 104.637L45.288 107.132C45.4747 107.12 45.6611 107.12 45.8479 107.134L46.0265 104.64ZM45.1265 104.637L44.965 102.142L43.165 102.259L43.3265 104.753L43.488 107.248L45.288 107.132L45.1265 104.637ZM43.3265 104.753L43.165 102.259L41.365 102.375L41.5265 104.87L41.688 107.365L43.488 107.248L43.3265 104.753ZM41.5265 104.87L41.3651 102.375C41.1324 102.39 40.9 102.396 40.6677 102.392L40.6265 104.892L40.5853 107.391C40.953 107.397 41.3207 107.388 41.688 107.365L41.5265 104.87ZM40.6265 104.892L40.6677 102.392L38.8677 102.362L38.8265 104.862L38.7853 107.362L40.5853 107.391L40.6265 104.892ZM38.8265 104.862L38.8677 102.362L37.0677 102.333L37.0265 104.832L36.9853 107.332L38.7853 107.362L38.8265 104.862ZM37.0265 104.832L37.0677 102.333C36.6884 102.326 36.3092 102.338 35.9305 102.368L36.1265 104.86L36.3225 107.352C36.5438 107.335 36.7647 107.328 36.9853 107.332L37.0265 104.832ZM36.1265 104.86L35.9305 102.368L34.1305 102.509L34.3265 105.002L34.5225 107.494L36.3225 107.352L36.1265 104.86ZM34.3265 105.002L34.1305 102.509L32.3305 102.651L32.5265 105.143L32.7225 107.636L34.5225 107.494L34.3265 105.002ZM32.5265 105.143L32.3305 102.651C32.4585 102.641 32.5939 102.652 32.7244 102.687C32.8527 102.721 32.9468 102.769 33.0043 102.806L31.6617 104.915L30.3191 107.023C31.01 107.463 31.8326 107.706 32.7225 107.636L32.5265 105.143ZM31.6617 104.915L33.0043 102.806L31.345 101.749L30.0025 103.858L28.6599 105.967L30.3191 107.023L31.6617 104.915ZM30.0025 103.858L31.345 101.749L29.6858 100.693L28.3432 102.802L27.0007 104.911L28.6599 105.967L30.0025 103.858ZM28.3432 102.802L29.6858 100.693C28.6968 100.063 27.5363 99.9895 26.4915 100.431L27.4649 102.734L28.4382 105.037C28.2774 105.105 28.0285 105.169 27.7229 105.145C27.4149 105.122 27.1674 105.017 27.0007 104.911L28.3432 102.802ZM27.4649 102.734L26.4916 100.431L24.6373 101.215L25.6106 103.518L26.5839 105.82L28.4382 105.037L27.4649 102.734ZM25.6106 103.518L24.6373 101.215L22.783 101.999L23.7563 104.301L24.7296 106.604L26.5839 105.82L25.6106 103.518ZM23.7563 104.301L22.783 101.999C22.7905 101.995 22.8109 101.988 22.8421 101.982C22.8736 101.977 22.9054 101.975 22.9336 101.976L22.8085 104.473L22.6833 106.97C23.3966 107.006 24.0872 106.876 24.7296 106.604L23.7563 104.301ZM22.8085 104.473L22.9336 101.976L20.9964 101.879L20.8712 104.376L20.746 106.873L22.6833 106.97L22.8085 104.473ZM20.8712 104.376L20.9964 101.879L19.0592 101.782L18.934 104.279L18.8088 106.776L20.746 106.873L20.8712 104.376ZM18.934 104.279L19.0592 101.782C19.3921 101.799 19.8182 101.925 20.1859 102.251C20.5234 102.549 20.6441 102.867 20.6807 102.989L18.2855 103.705L15.8902 104.421C16.0363 104.91 16.3198 105.506 16.8735 105.996C17.4574 106.512 18.153 106.743 18.8088 106.776L18.934 104.279ZM18.2855 103.705L20.6807 102.989L20.0239 100.792L17.6287 101.508L15.2334 102.224L15.8902 104.421L18.2855 103.705ZM17.6287 101.508L20.0239 100.792L19.3671 98.595L16.9719 99.311L14.5766 100.027L15.2334 102.224L17.6287 101.508ZM16.9719 99.311L19.3671 98.595C19.2117 98.0751 18.9187 97.5007 18.3943 97.0263C17.8593 96.5423 17.2319 96.297 16.6357 96.2116L16.2814 98.6864L15.9271 101.161C15.6817 101.126 15.3448 101.01 15.04 100.734C14.7457 100.468 14.6225 100.181 14.5766 100.027L16.9719 99.311ZM16.2814 98.6864L16.6357 96.2116L14.5307 95.9102L14.1763 98.385L13.822 100.86L15.927 101.161L16.2814 98.6864ZM14.1763 98.385L14.5307 95.9102L12.4256 95.6088L12.0713 98.0836L11.717 100.558L13.822 100.86L14.1763 98.385ZM12.0713 98.0836L12.4257 95.6088C12.581 95.6311 12.8916 95.7086 13.2116 95.9663C13.549 96.2379 13.7338 96.5788 13.8149 96.8587L11.4135 97.5539L9.01214 98.2492C9.18088 98.832 9.51923 99.4126 10.0759 99.8607C10.6151 100.295 11.2108 100.486 11.717 100.558L12.0713 98.0836ZM11.4135 97.5539L13.8149 96.8587L13.2887 95.0415L10.8874 95.7368L8.486 96.4321L9.01214 98.2492L11.4135 97.5539ZM10.8874 95.7368L13.2887 95.0415L12.7626 93.2243L10.3612 93.9196L7.95986 94.6149L8.486 96.4321L10.8874 95.7368ZM10.3612 93.9196L12.7626 93.2243C12.6513 92.8398 12.5218 92.4664 12.3719 92.1066L10.0642 93.0682L7.75655 94.0298C7.82728 94.1996 7.89581 94.3937 7.95986 94.6149L10.3612 93.9196ZM10.0642 93.0682L12.3719 92.1066L11.71 90.5182L9.40234 91.4798L7.09467 92.4414L7.75655 94.0298L10.0642 93.0682ZM9.40234 91.4798L11.71 90.5182L11.0481 88.9298L8.74046 89.8914L6.43279 90.853L7.09467 92.4414L9.40234 91.4798ZM8.74046 89.8914L11.0481 88.9298C10.8933 88.5584 10.7123 88.1964 10.508 87.8439L8.34501 89.0975L6.18206 90.3512C6.2844 90.5278 6.36696 90.695 6.43279 90.853L8.74046 89.8914ZM8.34501 89.0975L10.508 87.8439L9.58802 86.2567L7.42507 87.5104L5.26212 88.764L6.18206 90.3512L8.34501 89.0975ZM7.42507 87.5104L9.58802 86.2567L8.66808 84.6695L6.50513 85.9232L4.34218 87.1768L5.26212 88.764L7.42507 87.5104ZM6.50513 85.9232L8.66808 84.6695C8.6718 84.676 8.67825 84.6887 8.68431 84.7065C8.69037 84.7243 8.69365 84.7401 8.6951 84.7512L6.21618 85.0751L3.73726 85.3991C3.81974 86.0303 4.02444 86.6286 4.34218 87.1768L6.50513 85.9232ZM6.21618 85.0751L8.6951 84.7512L8.45923 82.9462L5.9803 83.2702L3.50138 83.5941L3.73726 85.3991L6.21618 85.0751ZM5.9803 83.2702L8.45923 82.9462L8.22335 81.1412L5.74443 81.4652L3.26551 81.7891L3.50138 83.5941L5.9803 83.2702ZM5.74443 81.4652L8.22335 81.1412C8.17882 80.8005 8.12601 80.4604 8.06495 80.1211L5.60447 80.5639L3.144 81.0068C3.19092 81.2675 3.23141 81.5283 3.26551 81.7891L5.74443 81.4652ZM5.60447 80.5639L8.06495 80.1211L7.741 78.3211L5.28053 78.7639L2.82006 79.2067L3.144 81.0068L5.60447 80.5639ZM5.28053 78.7639L7.741 78.3211L7.41706 76.5211L4.95659 76.9639L2.49612 77.4068L2.82006 79.2067L5.28053 78.7639ZM4.95659 76.9639L7.41706 76.5211C7.44722 76.6887 7.4442 76.8625 7.4103 77.0249C7.37744 77.1823 7.32376 77.2908 7.29053 77.3464L5.14451 76.0639L2.9985 74.7815C2.55779 75.519 2.31963 76.4261 2.49612 77.4068L4.95659 76.9639ZM5.14451 76.0639L7.29053 77.3464L8.36618 75.5464L6.22016 74.2639L4.07414 72.9815L2.99849 74.7815L5.14451 76.0639ZM6.22016 74.2639L8.36618 75.5464L9.44183 73.7464L7.29581 72.4639L5.14979 71.1815L4.07414 72.9815L6.22016 74.2639ZM7.29581 72.4639L9.44183 73.7464C9.65678 73.3867 9.85407 73.0224 10.0327 72.6536L7.78265 71.5639L5.53261 70.4743C5.42066 70.7055 5.29339 70.9412 5.14979 71.1815L7.29581 72.4639ZM7.78265 71.5639L10.0327 72.6536L10.9044 70.8536L8.65435 69.7639L6.40432 68.6743L5.53261 70.4743L7.78265 71.5639ZM8.65435 69.7639L10.9044 70.8536L11.7761 69.0536L9.52606 67.9639L7.27602 66.8743L6.40432 68.6743L8.65435 69.7639ZM9.52606 67.9639L11.7761 69.0536C12.1964 68.1856 12.2822 67.1951 11.9435 66.2333L9.58547 67.0639L7.22749 67.8945C7.17454 67.7442 7.14165 67.5562 7.15531 67.3493C7.1688 67.1449 7.22362 66.9825 7.27602 66.8743L9.52606 67.9639ZM9.58547 67.0639L11.9435 66.2333L11.3094 64.4333L8.95143 65.2639L6.59344 66.0945L7.22748 67.8945L9.58547 67.0639ZM8.95143 65.2639L11.3094 64.4333L10.6754 62.6334L8.31738 63.4639L5.95939 64.2945L6.59344 66.0945L8.95143 65.2639ZM8.31738 63.4639L10.6754 62.6334C10.3515 61.7139 9.71296 61.0557 9.14258 60.604L7.59059 62.5639L6.0386 64.5239C6.11777 64.5866 6.13138 64.6093 6.11144 64.5846C6.09054 64.5587 6.01876 64.4631 5.95939 64.2945L8.31738 63.4639ZM7.59059 62.5639L9.14258 60.604L6.86946 58.804L5.31747 60.7639L3.76547 62.7239L6.0386 64.5239L7.59059 62.5639ZM5.31747 60.7639L6.86946 58.804L4.59634 57.004L3.04434 58.9639L1.49235 60.9239L3.76547 62.7239L5.31747 60.7639ZM3.04434 58.9639L4.59634 57.004C4.55882 56.9743 4.65442 57.0392 4.76496 57.2224C4.88994 57.4295 5.02155 57.7725 4.99737 58.2039L2.50129 58.0639L0.00520372 57.924C-0.0794239 59.4338 0.870695 60.4316 1.49235 60.9239L3.04434 58.9639ZM2.50129 58.0639L4.99737 58.2039L5.09826 56.4039L2.60218 56.2639L0.106098 56.124L0.00520372 57.924L2.50129 58.0639ZM2.60218 56.2639L5.09826 56.4039L5.19916 54.6039L2.70307 54.4639L0.206992 54.324L0.106098 56.124L2.60218 56.2639ZM2.70307 54.4639L5.19916 54.6039C5.17364 55.0591 4.95812 55.2829 4.98187 55.2571L3.14254 53.5639L1.30322 51.8708C0.774641 52.445 0.266144 53.2687 0.206992 54.324L2.70307 54.4639ZM3.14254 53.5639L4.98187 55.2571L6.63886 53.4571L4.79953 51.7639L2.9602 50.0708L1.30322 51.8708L3.14254 53.5639ZM4.79953 51.7639L6.63886 53.4571L8.29584 51.6571L6.45652 49.9639L4.61719 48.2708L2.9602 50.0708L4.79953 51.7639ZM6.45652 49.9639L8.29584 51.6571C8.71007 51.2072 9.17707 50.4636 9.15919 49.469C9.14148 48.4842 8.65693 47.7645 8.24694 47.3359L6.44033 49.0639L4.63372 50.792C4.51069 50.6634 4.17231 50.2436 4.16 49.5589C4.14751 48.8643 4.47913 48.4207 4.61719 48.2708L6.45652 49.9639ZM6.44033 49.0639L8.24694 47.3359L6.52522 45.5359L4.71861 47.2639L2.912 48.992L4.63372 50.792L6.44033 49.0639ZM4.71861 47.2639L6.52522 45.5359L4.8035 43.7359L2.99688 45.4639L1.19027 47.192L2.912 48.992L4.71861 47.2639ZM2.99688 45.4639L4.8035 43.7359C4.85733 43.7922 5.04043 44.0013 5.13924 44.3752C5.24971 44.7933 5.20036 45.2136 5.05739 45.5476L2.75905 44.5639L0.46071 43.5803C0.189349 44.2143 0.115429 44.9346 0.305181 45.6527C0.483267 46.3266 0.849489 46.8357 1.19027 47.192L2.99688 45.4639ZM2.75905 44.5639L5.05739 45.5476L5.82778 43.7476L3.52944 42.7639L1.2311 41.7803L0.46071 43.5803L2.75905 44.5639ZM3.52944 42.7639L5.82778 43.7476L6.59818 41.9476L4.29983 40.9639L2.00149 39.9803L1.2311 41.7803L3.52944 42.7639ZM4.29983 40.9639L6.59818 41.9476C6.55787 42.0418 6.52136 42.086 6.52387 42.0829C6.52463 42.082 6.5331 42.0716 6.5522 42.0524C6.57126 42.0333 6.59927 42.007 6.63827 41.974L5.02533 40.0639L3.41239 38.1539C2.87767 38.6054 2.3341 39.2031 2.00149 39.9803L4.29983 40.9639ZM5.02533 40.0639L6.63827 41.974L8.76988 40.174L7.15693 38.2639L5.54399 36.3539L3.41239 38.1539L5.02533 40.0639ZM7.15693 38.2639L8.76988 40.174L10.9015 38.374L9.28854 36.4639L7.6756 34.5539L5.54399 36.3539L7.15693 38.2639ZM9.28854 36.4639L10.9015 38.374C11.3291 38.0129 12.0418 37.242 12.0578 36.0473C12.0739 34.8399 11.3689 34.0471 10.9349 33.6722L9.30056 35.5639L7.66619 37.4557C7.57945 37.3808 7.04609 36.888 7.05822 35.9805C7.07017 35.0859 7.60323 34.615 7.67559 34.5539L9.28854 36.4639ZM9.30056 35.5639L10.9349 33.6722L8.85144 31.8722L7.21707 33.7639L5.5827 35.6557L7.66619 37.4557L9.30056 35.5639ZM7.21707 33.7639L8.85144 31.8722L6.76795 30.0722L5.13358 31.9639L3.49921 33.8557L5.5827 35.6557L7.21707 33.7639ZM5.13358 31.9639L6.76795 30.0722C6.8014 30.1011 7.15263 30.4038 7.27816 31.0205C7.42849 31.759 7.1443 32.3482 6.9101 32.6423L4.9546 31.0847L2.99911 29.5271C2.53698 30.1073 2.16865 30.9862 2.37864 32.0178C2.56383 32.9276 3.11851 33.5268 3.49921 33.8557L5.13358 31.9639ZM4.9546 31.0847L6.9101 32.6423L8.27768 30.9253L6.32219 29.3677L4.36669 27.8102L2.99911 29.5271L4.9546 31.0847ZM6.32219 29.3677L8.27768 30.9253L9.64526 29.2083L7.68977 27.6508L5.73428 26.0932L4.36669 27.8102L6.32219 29.3677ZM7.68977 27.6508L9.64527 29.2083C10.0554 28.6935 10.4265 28.0365 10.5665 27.243L8.1045 26.8087L5.64252 26.3743C5.6854 26.1313 5.78004 26.0357 5.73428 26.0932L7.68977 27.6508ZM8.1045 26.8087L10.5665 27.243L10.8578 25.5915L8.39585 25.1572L5.93387 24.7228L5.64252 26.3743L8.1045 26.8087ZM8.39585 25.1572L10.8578 25.5915L11.1492 23.94L8.6872 23.5057L6.22522 23.0714L5.93387 24.7228L8.39585 25.1572ZM8.6872 23.5057L11.1492 23.94C11.1324 24.0352 11.1 24.138 11.0492 24.2392C10.9986 24.3399 10.9399 24.4187 10.8871 24.4756L9.05388 22.7759L7.22061 21.0762C6.70848 21.6285 6.35999 22.3074 6.22522 23.0714L8.6872 23.5057ZM9.05388 22.7759L10.8871 24.4756L12.0625 23.208L10.2292 21.5082L8.39597 19.8085L7.22061 21.0762L9.05388 22.7759ZM10.2292 21.5082L12.0625 23.208L13.2379 21.9403L11.4046 20.2405L9.57133 18.5408L8.39597 19.8085L10.2292 21.5082ZM11.4046 20.2405L13.2379 21.9403C13.649 21.4968 13.9742 20.979 14.1882 20.3953L11.841 19.5347L9.49383 18.6741C9.50449 18.645 9.5184 18.6165 9.53426 18.5908C9.54999 18.5654 9.56391 18.5488 9.57133 18.5408L11.4046 20.2405ZM11.841 19.5347L14.1882 20.3953L14.7586 18.8395L12.4114 17.9789L10.0642 17.1183L9.49383 18.6741L11.841 19.5347ZM12.4114 17.9789L14.7586 18.8395L15.3291 17.2838L12.9818 16.4232L10.6346 15.5626L10.0642 17.1183L12.4114 17.9789ZM12.9818 16.4232L15.3291 17.2838C15.2767 17.4265 15.1892 17.5863 15.0567 17.7365C14.9247 17.8863 14.7808 17.9892 14.6555 18.0547L13.4966 15.8395L12.3378 13.6243C11.5475 14.0378 10.947 14.7108 10.6346 15.5626L12.9818 16.4232ZM13.4966 15.8395L14.6555 18.0547L16.1443 17.2758L14.9854 15.0607L13.8266 12.8455L12.3378 13.6243L13.4966 15.8395ZM14.9854 15.0607L16.1443 17.2758L17.6331 16.497L16.4743 14.2818L15.3154 12.0666L13.8266 12.8455L14.9854 15.0607ZM16.4743 14.2818L17.6331 16.497C18.8914 15.8387 19.294 14.6257 19.4116 13.8302L16.9384 13.4647L14.4653 13.0992C14.4654 13.0984 14.4852 12.952 14.6027 12.7453C14.7334 12.5151 14.9648 12.25 15.3154 12.0666L16.4743 14.2818ZM16.9384 13.4647L19.4116 13.8302L19.7795 11.3408L17.3063 10.9753L14.8332 10.6098L14.4653 13.0992L16.9384 13.4647ZM17.3063 10.9753L19.7795 11.3408L20.1474 8.85142L17.6742 8.48593L15.2011 8.12043L14.8332 10.6098L17.3063 10.9753ZM17.6742 8.48593L20.1474 8.85142C20.1358 8.92977 20.0572 9.40454 19.591 9.84614C19.0478 10.3608 18.4085 10.435 18.0462 10.4009L18.2802 7.91189L18.5141 5.42286C17.8092 5.3566 16.8976 5.51031 16.1524 6.21635C15.4842 6.84929 15.274 7.62719 15.2011 8.12043L17.6742 8.48593ZM18.2802 7.91189L18.0462 10.4009L20.102 10.5942L20.336 8.10514L20.57 5.61612L18.5141 5.42286L18.2802 7.91189ZM20.336 8.10514L20.102 10.5942L22.1579 10.7874L22.3919 8.2984L22.6258 5.80937L20.57 5.61612L20.336 8.10514ZM22.3919 8.2984L22.1579 10.7874C23.4519 10.9091 24.5244 10.3214 25.2161 9.46527L23.2716 7.89403L21.3271 6.32279C21.3989 6.23389 21.5574 6.0728 21.8247 5.94993C22.1041 5.82148 22.3895 5.78716 22.6258 5.80937L22.3919 8.2984ZM23.2716 7.89403L25.2161 9.46527L26.6793 7.65454L24.7347 6.0833L22.7902 4.51206L21.3271 6.32279L23.2716 7.89403ZM24.7347 6.0833L26.6793 7.65454L28.1424 5.84381L26.1978 4.27257L24.2533 2.70133L22.7902 4.51206L24.7347 6.0833ZM26.1978 4.27257L28.1424 5.84381C28.0469 5.96194 27.3499 6.75182 26.1349 6.54094C25.6166 6.45098 25.267 6.20531 25.0862 6.0451C24.9097 5.88882 24.8232 5.75322 24.8038 5.72211L26.9248 4.39874L29.0458 3.07538C28.8422 2.74902 28.217 1.82757 26.99 1.6146C25.5327 1.36167 24.5926 2.28141 24.2533 2.70133L26.1978 4.27257ZM26.9248 4.39874L24.8038 5.72211L26.2484 8.03754L28.3695 6.71417L30.4905 5.39081L29.0458 3.07538L26.9248 4.39874ZM28.3695 6.71417L26.2484 8.03754L27.6931 10.353L29.8141 9.0296L31.9351 7.70623L30.4905 5.39081L28.3695 6.71417ZM29.8141 9.0296L27.6931 10.353C27.7786 10.49 27.8867 10.6535 28.013 10.8127C28.0873 10.9065 28.3685 11.2662 28.8318 11.5346C29.075 11.6754 29.6322 11.9466 30.3807 11.8695C31.2576 11.7792 31.878 11.2721 32.2187 10.7721C32.5067 10.3494 32.5969 9.94417 32.6302 9.75885C32.669 9.543 32.6753 9.35826 32.6753 9.23883L30.1753 9.23882L27.6753 9.23882C27.6753 9.181 27.6778 9.04798 27.7091 8.87398C27.7349 8.7305 27.8137 8.35727 28.0867 7.95663C28.4124 7.47868 29.0139 6.98383 29.8684 6.89583C30.5942 6.82106 31.1251 7.08467 31.3382 7.2081C31.5759 7.34584 31.7293 7.4907 31.7919 7.55256C31.8655 7.62539 31.9126 7.68323 31.9313 7.70681C31.9672 7.75213 31.97 7.76216 31.9351 7.70624L29.8141 9.0296ZM30.1753 9.23882L32.6753 9.23882V7.76028L30.1753 7.76028L27.6753 7.76029V9.23883L30.1753 9.23882ZM30.1753 7.76028L32.6753 7.76029V6.28174L30.1753 6.28174L27.6753 6.28174V7.76028L30.1753 7.76028ZM30.1753 6.28174L32.6753 6.28174C32.6753 6.69621 32.5264 7.35319 31.9469 7.86727C31.4446 8.31282 30.9291 8.36795 30.7893 8.37715L30.6253 5.88253L30.4613 3.38791C30.0214 3.41683 29.2809 3.54836 28.6287 4.12698C27.8992 4.77413 27.6753 5.62085 27.6753 6.28175L30.1753 6.28174ZM30.6253 5.88253L30.7893 8.37715L32.5893 8.25883L32.4253 5.76421L32.2613 3.2696L30.4613 3.38791L30.6253 5.88253Z" fill="#238201"/>
</svg>
