<svg width="112" height="111" viewBox="0 0 112 111" fill="none" xmlns="http://www.w3.org/2000/svg">
<path d="M6.17725 29.915C6.17725 16.6602 16.9224 5.91504 30.1772 5.91504H82.1772C95.4321 5.91504 106.177 16.6602 106.177 29.915V81.915C106.177 95.1699 95.4321 105.915 82.1772 105.915H30.1772C16.9224 105.915 6.17725 95.1699 6.17725 81.915V29.915Z" fill="#B4F19F"/>
<path d="M80.728 0.172852L81.8218 0.836914L83.6187 2.49707L84.9663 3.7666L86.1577 3.59082L88.0718 3.31738L88.853 3.29785C89.3639 3.33737 89.8555 3.47608 90.2983 3.72754L90.9233 4.17676L92.3687 5.48535L93.814 6.77441C94.2262 7.14264 94.5931 7.56884 94.8882 8.04395L95.8647 9.62598L96.7046 10.9736L97.9937 11.6182L99.5366 12.3604C99.9718 12.5738 100.347 12.8687 100.65 13.2197L101.333 14.4502L102.388 17.7314C102.47 17.9851 102.544 18.2316 102.623 18.4541L103.15 19.9189L103.384 20.6025L106.119 21.501L109.244 22.4971C109.86 22.6975 110.919 23.201 111.451 24.2549L111.763 25.5244L111.958 29.5869C112.014 30.7771 111.481 31.7489 110.826 32.4189L109.068 34.2158L107.388 35.915L107.076 37.458L106.705 39.2549L107.037 41.0127L107.369 42.8291C107.453 43.2993 107.484 43.7765 107.466 44.2549L107.388 46.0518L107.33 47.6143L108.208 49.3135L109.146 51.1104C109.558 51.9009 109.722 52.8326 109.478 53.7861L109.009 55.583L108.56 57.3799C108.526 57.5143 108.506 57.6522 108.501 57.7705L108.423 59.5674L108.365 60.9736L109.458 62.5361L110.708 64.333C111.009 64.7671 111.258 65.3411 111.314 66.0127C111.369 66.692 111.213 67.3148 110.943 67.8291L109.986 69.626L109.458 70.6025L110.103 71.6377L111.236 73.4346C111.663 74.1205 111.846 75.036 111.548 75.9736C111.29 76.7812 110.76 77.3083 110.376 77.6143L108.111 79.4307L106.49 80.7002L106.646 81.3643L107.017 83.1221L107.037 83.1416C107.055 83.1855 107.079 83.2617 107.134 83.3564L109.595 87.5752C109.915 88.124 110.375 89.3115 109.654 90.5439C109.061 91.554 108.053 91.8638 107.642 91.9697L104.751 92.7119L103.267 93.083L103.345 93.6104L103.638 95.7588C103.765 96.6822 103.581 97.7831 102.779 98.6689L101.568 99.9971L100.357 101.345C99.9008 101.848 99.3417 102.224 98.7163 102.478L97.0171 103.161L95.9233 103.591L95.1616 105.681L94.2437 108.161C94.0455 108.698 93.425 109.908 91.9194 110.114C90.6786 110.28 89.7738 109.598 89.4585 109.333L87.0366 107.282L85.5327 106.013L85.1226 106.345L83.5015 107.575C82.6639 108.216 81.5661 108.508 80.4351 108.181L78.6382 107.653L77.0171 107.185L75.4546 107.595L73.6577 108.063C73.2352 108.174 72.802 108.255 72.3687 108.298L68.7749 108.649C67.8976 108.736 67.0921 108.522 66.4116 108.142L64.6147 107.126L63.1694 106.325L61.8999 106.638L60.0835 107.067C60.0047 107.086 59.8994 107.119 59.771 107.185L57.9741 108.103L56.1772 109.04C55.2043 109.541 54.087 109.573 53.0718 109.099L51.2749 108.259L49.4585 107.399L47.6421 107.263L45.8452 107.146C45.6627 107.133 45.4807 107.115 45.2983 107.126L43.4819 107.243L41.6851 107.36C41.3206 107.384 40.9562 107.405 40.5913 107.399L38.7944 107.36L36.978 107.341C36.7633 107.338 36.5489 107.344 36.3335 107.36L34.5171 107.497L32.7202 107.634C31.8318 107.703 31.0078 107.468 30.3179 107.028L28.6577 105.974L27.6812 105.349L26.5874 105.817L24.7319 106.599C24.0895 106.87 23.3945 107.005 22.6812 106.97L18.814 106.774C18.1582 106.742 17.4643 106.51 16.8804 105.993C16.3281 105.505 16.0307 104.919 15.8843 104.431L15.2397 102.224L14.8687 100.993L13.8335 100.856L11.7241 100.563C11.2185 100.491 10.6223 100.293 10.0835 99.8604C9.5284 99.4134 9.17848 98.8399 9.00928 98.2588L7.95459 94.626C7.89136 94.4076 7.82906 94.2082 7.75928 94.04L7.09521 92.4385L6.43115 90.8564C6.36538 90.6987 6.27939 90.5249 6.17725 90.3486L4.34131 87.1846C4.02435 86.6377 3.81872 86.0367 3.73584 85.4072L3.50146 83.5908L3.26709 81.7939C3.23316 81.5343 3.19655 81.2722 3.1499 81.0127L2.81787 79.2158L2.50537 77.4189C2.32899 76.4389 2.55346 75.5195 2.99365 74.7822L5.14209 71.1885C5.28418 70.9507 5.42162 70.7142 5.53271 70.4854L6.41162 68.6689L7.03662 67.3408L6.5874 66.0908L6.04053 64.5283L3.7749 62.7314L1.48975 60.9346C0.868092 60.4423 -0.0792564 59.4366 0.00537109 57.9268L0.200684 54.333L0.571777 52.9268C0.772978 52.5132 1.04771 52.1613 1.31396 51.8721L2.95459 50.0752L3.44287 49.5479L2.91553 49.001L1.19678 47.2041C0.8565 46.8484 0.476719 46.3336 0.29834 45.6611C0.109521 44.9466 0.186497 44.2226 0.45459 43.5908L1.23584 41.7744L1.99756 39.9775L2.64209 38.9424C2.88474 38.6426 3.15826 38.385 3.42334 38.1611L5.55225 36.3643L5.98193 35.9932L5.59131 35.6611L3.50146 33.8643C3.12199 33.5364 2.57515 32.9332 2.38818 32.0283C2.1785 30.9982 2.53247 30.1085 2.99365 29.5283L4.36084 27.8096L5.7085 26.1299L5.94287 24.7236L6.23584 23.083L6.5874 21.9893C6.75479 21.6581 6.97793 21.3452 7.23193 21.0713L8.40381 19.8018L9.51709 18.6104L10.064 17.126L10.6304 15.5635C10.9427 14.7116 11.5588 14.0433 12.3491 13.6299L13.8335 12.8486L14.5366 12.458L14.8296 10.6221L15.2007 8.12207C15.2736 7.62935 15.4919 6.85968 16.1577 6.22754C16.903 5.5215 17.8161 5.3605 18.521 5.42676L21.8022 5.73926L22.7983 4.50879L24.2632 2.71191L25.2007 1.91113C25.6608 1.65913 26.2669 1.49134 26.9976 1.61816C27.6073 1.72521 28.0698 2.00543 28.4038 2.30176L29.0483 3.08301L29.4194 3.68848C29.8231 3.51424 30.1842 3.41398 30.4546 3.39551L32.271 3.27832L34.0679 3.16113H34.0093L35.8062 2.24316L37.603 1.34473L38.6382 1.03223C39.0084 0.98514 39.3969 0.991068 39.7905 1.09082C40.1539 1.18391 40.4801 1.33077 40.7476 1.50098L41.4116 2.04785L43.2085 3.88379L44.9858 5.71973L46.6265 6.16895L47.564 6.44238L48.7944 5.3877L50.5913 3.84473C50.9745 3.51482 51.5117 3.17813 52.1929 3.04395C52.9076 2.90461 53.5984 3.02276 54.1851 3.29785L56.0015 4.1377L56.8804 4.56738L57.9351 3.78613L59.7319 2.45801C60.1962 2.11405 60.7277 1.821 61.2944 1.61816L64.8882 0.329102L65.9233 0.133789C66.9039 0.115532 67.7365 0.570868 68.3062 1.09082L70.1226 2.73145L71.9194 4.37207C72.0333 4.47617 72.0921 4.5071 72.0952 4.50879L73.8921 5.25098L74.3022 5.44629L75.396 3.92285L77.1929 1.42285C77.4761 1.02968 78.0854 0.314294 79.1069 0.0751953C79.7173 -0.0673123 80.2656 0.00800853 80.728 0.172852ZM32.6226 9.7627C32.5889 9.94917 32.4991 10.3575 32.2124 10.7783C31.8708 11.2764 31.2499 11.7821 30.3765 11.8721C29.632 11.947 29.0765 11.6807 28.8335 11.54C28.3705 11.2719 28.0879 10.9116 28.0132 10.8174C27.887 10.6582 27.7862 10.4857 27.7007 10.3486L26.2944 8.12207L25.2202 9.46973C24.5285 10.3258 23.4479 10.9195 22.1538 10.7979L20.103 10.6025L19.8882 10.5635L19.7905 11.3447L19.4194 13.8252C19.302 14.6196 18.8964 15.8421 17.6421 16.501L16.1382 17.2822L15.1226 17.79L14.7515 18.8447L14.1851 20.4072C13.971 20.987 13.6564 21.5092 13.2476 21.9502L12.0562 23.2197L11.0991 24.2158L10.8647 25.6025L10.5718 27.2432C10.4318 28.0365 10.0638 28.701 9.65381 29.2158L8.28662 30.9346L8.07178 31.1885L8.85303 31.8721L10.9429 33.6689C11.3769 34.044 12.0723 34.8446 12.0562 36.0518C12.0396 37.2449 11.3313 38.0148 10.9038 38.376L6.646 41.9697C6.62393 41.9884 6.58327 41.9945 6.56787 42.0088L5.82568 43.7471L5.53271 44.4697L6.52881 45.5439L8.24756 47.3408C8.65717 47.7692 9.14717 48.4863 9.16553 49.4697C9.18334 50.4601 8.71906 51.2067 8.30615 51.6572L6.646 53.4541L5.18115 55.0361L5.10303 56.4033L5.06396 57.3604L6.88037 58.8057L9.146 60.6025C9.7154 61.0534 10.3451 61.7168 10.6694 62.6338L11.314 64.4307L11.939 66.2275C12.2777 67.1893 12.2031 68.1916 11.7827 69.0596L10.0249 72.6533C9.84644 73.0217 9.65368 73.3878 9.43896 73.7471L8.36475 75.5439L7.50537 76.9697L7.73975 78.3174L8.07178 80.1338C8.13206 80.4697 8.18394 80.8121 8.22803 81.1494L8.4624 82.9463L8.67725 84.665L9.59521 86.2666L10.5132 87.8486C10.7168 88.2003 10.8861 88.5719 11.0405 88.9424L12.3687 92.1064C12.5175 92.4636 12.6485 92.8381 12.7593 93.2197L13.2866 95.0361L13.4819 95.7588L14.5366 95.915L16.646 96.208C17.24 96.2943 17.871 96.5463 18.4038 97.0283C18.923 97.4994 19.2051 98.0745 19.3608 98.5908L20.0249 100.798L20.3374 101.853L21.0015 101.892L22.8765 101.95L24.6343 101.228L26.4897 100.427C27.2715 100.096 28.1206 100.065 28.9116 100.329L29.6929 100.7L31.353 101.755L32.7202 102.614L34.1265 102.517L35.9233 102.38C36.302 102.35 36.6963 102.335 37.0757 102.341L38.8726 102.36L40.6694 102.399C40.9017 102.403 41.1399 102.395 41.3726 102.38L44.9663 102.146C45.3796 102.119 45.8032 102.116 46.2163 102.146L48.0132 102.282L49.8101 102.399L50.728 102.556C51.0275 102.636 51.3111 102.758 51.5874 102.888L53.3843 103.728L54.5171 104.255L55.689 103.669L57.4858 102.731C57.9516 102.492 58.4514 102.304 58.9702 102.185L62.564 101.364L63.9897 101.306L65.2593 101.755L67.0562 102.771L68.5991 103.649L70.0835 103.493L71.8804 103.317C72.0436 103.301 72.2146 103.284 72.3882 103.239L74.2046 102.771L76.0015 102.282L77.1147 102.146C77.4891 102.151 77.8624 102.215 78.228 102.321L80.0249 102.849L81.0405 103.142L82.0757 102.38L83.6968 101.149L84.8687 100.583C85.2857 100.489 85.7284 100.497 86.1577 100.583C86.5275 100.658 86.856 100.781 87.1343 100.935L87.8179 101.423L90.2593 103.454L90.5522 103.708L91.3921 101.462L92.0952 100.231C92.4271 99.8262 92.8688 99.455 93.4624 99.2158L95.1421 98.5322L96.7241 97.8877L97.8569 96.6377L98.5796 95.8174L98.3843 94.2744L98.0913 92.1064C97.9818 91.2978 98.1764 90.3806 98.8335 89.6455C99.4025 89.0141 100.111 88.7539 100.591 88.6299L103.501 87.8682L103.912 87.751L102.818 85.8564C102.528 85.358 102.269 84.7938 102.134 84.1768L101.763 82.4189L101.373 80.6807C101.002 78.9679 102.117 77.7971 102.74 77.3018L105.005 75.5049L106.08 74.6455L105.865 74.2939L104.751 72.4775C104.12 71.462 104.021 70.2233 104.615 69.0986L105.552 67.3018L106.021 66.3838L105.337 65.3877L104.107 63.5908C103.659 62.9441 103.328 62.1188 103.365 61.1689L103.423 59.3721L103.501 57.5752C103.52 57.0939 103.598 56.6146 103.716 56.1494L104.166 54.3525L104.498 53.0049L103.775 51.6182L102.837 49.8213C102.506 49.1865 102.3 48.4599 102.33 47.6729L102.408 45.876L102.466 44.0791C102.471 43.9623 102.469 43.8331 102.447 43.708L101.783 40.1143C101.672 39.5008 101.678 38.8683 101.802 38.2588L102.544 34.665L103.013 33.4346C103.224 33.0788 103.482 32.7758 103.736 32.5166L105.494 30.7197L106.919 29.2354L106.861 27.79L106.802 26.9697L104.576 26.2471L101.451 25.2314C101.065 25.1066 100.618 24.9293 100.201 24.6455C99.783 24.3603 99.2299 23.855 98.9507 23.0635L98.4233 21.5986L97.9155 20.1143C97.82 19.8434 97.7171 19.5489 97.6226 19.2549L97.0952 17.6143L96.7437 16.5596L95.8062 16.1104L94.2632 15.3486C93.5484 14.9979 92.9904 14.4684 92.603 13.8447L91.6265 12.2627L90.6304 10.6807C90.598 10.6285 90.5609 10.5659 90.4937 10.5049L89.0483 9.19629L88.0913 8.35645L86.8804 8.53223L84.9663 8.80566C83.7128 8.98343 82.6848 8.46556 81.9976 7.8291L80.2007 6.16895L80.0249 6.0127L79.4585 6.83301L77.6616 9.33301C77.3892 9.71118 76.9415 10.2182 76.2749 10.5439C75.5022 10.9199 74.6051 10.9654 73.7749 10.6221L71.978 9.87988L70.1616 9.1377C69.5375 8.87796 69.0021 8.48552 68.5405 8.06348L66.7437 6.42285L65.5913 5.3877L64.771 5.68066L62.9741 6.3252C62.9409 6.3371 62.856 6.38085 62.7202 6.48145L60.9233 7.80957L59.1069 9.1377C58.6967 9.44073 58.158 9.71369 57.5054 9.80176C56.8362 9.89091 56.2098 9.76251 55.6694 9.50879L53.853 8.66895L53.0718 8.29785L52.0562 9.17676L50.2593 10.7197C49.5147 11.3607 48.3641 11.8817 47.0366 11.501L45.2397 10.9736L43.4429 10.4658C42.6044 10.2246 41.9454 9.71883 41.4507 9.21582L39.6538 7.37988L38.6577 6.38379L38.0522 6.71582L36.2554 7.61426C35.6932 7.89814 35.0694 8.09631 34.3999 8.1416L32.6812 8.23926V9.23535C32.6812 9.35478 32.6614 9.54684 32.6226 9.7627Z" fill="#238201"/>
<path d="M41.2807 43.9995L45.6945 42.9546V38.1846L41.2807 39.2296V43.9995Z" fill="#238201"/>
<path d="M45.6945 47.7245L50.1083 46.6796V41.9096L45.6945 42.9546V47.7245Z" fill="#238201"/>
<path d="M41.2807 53.5394L45.6945 52.4944V47.7245L41.2807 48.7694V53.5394Z" fill="#238201"/>
<path d="M45.6945 57.2643L50.1083 56.2194V51.4495L45.6945 52.4944V57.2643Z" fill="#238201"/>
<path d="M41.2807 63.0792L45.6945 62.0343V57.2643L41.2807 58.3093V63.0792Z" fill="#238201"/>
<path d="M45.6945 66.8042L50.1083 65.7593V60.9893L45.6945 62.0343V66.8042Z" fill="#238201"/>
<path d="M54.5221 59.9444V55.1745L50.1083 56.2194V60.9893L54.5221 59.9444Z" fill="#238201"/>
<path d="M54.5221 64.7143L58.9359 63.6694V58.8995L54.5221 59.9444V64.7143Z" fill="#238201"/>
<path d="M63.3497 57.8545V53.0846L58.9359 54.1295V58.8995L63.3497 57.8545Z" fill="#238201"/>
<path d="M67.7635 61.5795V56.8096L63.3497 57.8545V62.6245L67.7635 61.5795Z" fill="#238201"/>
<path d="M72.1772 55.7647V50.9947L67.7635 52.0397V56.8096L72.1772 55.7647Z" fill="#238201"/>
<path d="M67.7635 47.2698L63.3497 48.3147V53.0846L67.7635 52.0397V47.2698Z" fill="#238201"/>
<path d="M54.5221 50.4046V55.1745L58.9359 54.1295V49.3596L54.5221 50.4046Z" fill="#238201"/>
<path d="M54.5221 45.6346L50.1083 46.6796V51.4495L54.5221 50.4046V45.6346Z" fill="#238201"/>
<path d="M54.5221 36.0948L50.1083 37.1397V41.9096L54.5221 40.8647V36.0948Z" fill="#238201"/>
<path d="M58.9359 44.5897V39.8198L54.5221 40.8647V45.6346L58.9359 44.5897Z" fill="#238201"/>
<path d="M63.3497 34.0049L58.9359 35.0498V39.8198L63.3497 38.7748V34.0049Z" fill="#238201"/>
<path d="M67.7635 42.4998V37.7299L63.3497 38.7748V43.5448L67.7635 42.4998Z" fill="#238201"/>
<path d="M58.9359 49.3596L63.3497 48.3147V43.5448L58.9359 44.5897V49.3596Z" fill="#238201"/>
<path d="M72.1772 46.2248V41.4549L67.7635 42.4998V47.2698L72.1772 46.2248Z" fill="#238201"/>
<path d="M72.1772 36.685V36.4508C72.1772 34.1355 70.0165 32.4266 67.7635 32.96V37.7299L72.1772 36.685Z" fill="#238201"/>
<path d="M40.1772 68.1104V79.915C40.8287 79.7375 41.2807 79.1458 41.2807 78.4706V67.8491L40.1772 68.1104Z" fill="#238201"/>
<path d="M40.1772 63.3404V68.1104L41.2807 67.8491V63.0792L40.1772 63.3404Z" fill="#238201"/>
<path d="M40.1772 58.5705V63.3404L41.2807 63.0792V58.3093L40.1772 58.5705Z" fill="#238201"/>
<path d="M40.1772 53.8006V58.5705L41.2807 58.3093V53.5394L40.1772 53.8006Z" fill="#238201"/>
<path d="M40.1772 49.0307V53.8006L41.2807 53.5394V48.7694L40.1772 49.0307Z" fill="#238201"/>
<path d="M40.1772 44.2607V49.0307L41.2807 48.7694V43.9995L40.1772 44.2607Z" fill="#238201"/>
<path d="M41.2807 39.2296C40.634 39.3827 40.1772 39.9602 40.1772 40.6248V44.2607L41.2807 43.9995V39.2296Z" fill="#238201"/>
<path d="M40.1772 79.915V63.3404M40.1772 79.915V68.1104M40.1772 79.915C40.8287 79.7375 41.2807 79.1458 41.2807 78.4706V67.8491M40.1772 68.1104V63.3404M40.1772 68.1104L41.2807 67.8491M40.1772 63.3404V58.5705M40.1772 63.3404L41.2807 63.0792M72.1772 55.7647C72.1772 55.7647 72.1772 56.482 72.1772 57.3694C72.1771 59.224 70.9003 60.8369 69.0956 61.2642C67.7635 61.5795 67.7635 61.5795 67.7635 61.5795M72.1772 55.7647V50.9947M72.1772 55.7647L67.7635 56.8096M40.1772 58.5705V53.8006M40.1772 58.5705L41.2807 58.3093M72.1772 50.9947V46.2248M72.1772 50.9947L67.7635 52.0397M72.1772 46.2248V41.4549M72.1772 46.2248L67.7635 47.2698M40.1772 53.8006V49.0307M40.1772 53.8006L41.2807 53.5394M40.1772 49.0307V44.2607M40.1772 49.0307L41.2807 48.7694M72.1772 41.4549V36.685M72.1772 41.4549L67.7635 42.4998M72.1772 36.685V36.4508C72.1772 34.1355 70.0165 32.4266 67.7635 32.96M72.1772 36.685L67.7635 37.7299M40.1772 44.2607V40.6248C40.1772 39.9602 40.634 39.3827 41.2807 39.2296M40.1772 44.2607L41.2807 43.9995M67.7635 37.7299V42.4998M67.7635 37.7299V32.96M67.7635 37.7299L63.3497 38.7748M67.7635 42.4998V47.2698M67.7635 42.4998L63.3497 43.5448M67.7635 32.96L63.3497 34.0049M67.7635 61.5795L63.3497 62.6245M67.7635 61.5795V56.8096M63.3497 34.0049L58.9359 35.0498M63.3497 34.0049V38.7748M63.3497 62.6245L58.9359 63.6694M63.3497 62.6245V57.8545M58.9359 63.6694L54.5221 64.7143M58.9359 63.6694V58.8995M54.5221 64.7143L50.1083 65.7593M54.5221 64.7143V59.9444M50.1083 65.7593L45.6945 66.8042M50.1083 65.7593V60.9893M45.6945 66.8042L41.2807 67.8491M45.6945 66.8042V62.0343M41.2807 67.8491V63.0792M41.2807 39.2296L45.6945 38.1846M41.2807 39.2296V43.9995M45.6945 38.1846L50.1083 37.1397M45.6945 38.1846V42.9546M50.1083 37.1397L54.5221 36.0948M50.1083 37.1397V41.9096M54.5221 36.0948L58.9359 35.0498M54.5221 36.0948V40.8647M58.9359 35.0498V39.8198M41.2807 43.9995L45.6945 42.9546M41.2807 43.9995V48.7694M45.6945 42.9546L50.1083 41.9096M45.6945 42.9546V47.7245M45.6945 47.7245L50.1083 46.6796M45.6945 47.7245V52.4944M45.6945 47.7245L41.2807 48.7694M50.1083 46.6796V41.9096M50.1083 46.6796V51.4495M50.1083 46.6796L54.5221 45.6346M50.1083 41.9096L54.5221 40.8647M41.2807 53.5394L45.6945 52.4944M41.2807 53.5394V48.7694M41.2807 53.5394V58.3093M45.6945 52.4944L50.1083 51.4495M45.6945 52.4944V57.2643M45.6945 57.2643L50.1083 56.2194M45.6945 57.2643V62.0343M45.6945 57.2643L41.2807 58.3093M50.1083 56.2194V51.4495M50.1083 56.2194V60.9893M50.1083 56.2194L54.5221 55.1745M50.1083 51.4495L54.5221 50.4046M41.2807 63.0792L45.6945 62.0343M41.2807 63.0792V58.3093M45.6945 62.0343L50.1083 60.9893M50.1083 60.9893L54.5221 59.9444M54.5221 59.9444V55.1745M54.5221 59.9444L58.9359 58.8995M54.5221 55.1745L58.9359 54.1295M54.5221 55.1745V50.4046M58.9359 58.8995V54.1295M58.9359 58.8995L63.3497 57.8545M63.3497 57.8545V53.0846M63.3497 57.8545L67.7635 56.8096M63.3497 53.0846L58.9359 54.1295M63.3497 53.0846L67.7635 52.0397M63.3497 53.0846V48.3147M58.9359 54.1295V49.3596M67.7635 56.8096V52.0397M67.7635 52.0397V47.2698M67.7635 47.2698L63.3497 48.3147M63.3497 48.3147L58.9359 49.3596M63.3497 48.3147V43.5448M54.5221 50.4046L58.9359 49.3596M54.5221 50.4046V45.6346M58.9359 49.3596V44.5897M54.5221 45.6346V40.8647M54.5221 45.6346L58.9359 44.5897M54.5221 40.8647L58.9359 39.8198M58.9359 44.5897V39.8198M58.9359 44.5897L63.3497 43.5448M58.9359 39.8198L63.3497 38.7748M63.3497 38.7748V43.5448" stroke="#238201"/>
</svg>
