<svg width="40" height="41" viewBox="0 0 40 41" fill="none" xmlns="http://www.w3.org/2000/svg">
<circle cx="20" cy="20.6665" r="18.5" fill="#F8D29C" stroke="#965700" stroke-width="3"/>
<path d="M12.3987 31C13.0129 28.8983 14.128 29.5058 14.532 28.0774C15.6472 28.652 16.0512 27.4698 17.5865 28.1923C17.5219 27.1907 16.3744 26.3041 14.8391 26.2384C14.2411 23.8576 15.6172 22.001 20.3501 19.0303C20.2658 19.4697 20.2282 19.8229 20.2286 20.1005C20.2315 21.9836 21.9851 20.3864 22.7897 18.5954C23.276 17.513 23.4156 16.3598 22.6127 15.8614C24.4713 13.2178 24.8107 14.2851 27.9945 12.3514C28.0018 12.1896 28.0019 12.0242 27.9945 11.8551C27.7738 11.5541 27.5742 11.5034 27.041 11.5595C25.7642 10.1803 22.1769 11.5319 18.0714 13.6448C17.3764 13.9239 15.5664 11.7073 13.5462 12.3969C13.1906 12.8238 15.5664 13.9567 15.5664 15.9763C12.6979 20.0158 12.2913 22.3939 13.2714 26.7966C12.1401 27.9296 11.5583 30.3104 12.3987 31Z" fill="#965700"/>
<path d="M27.9945 12.3514C24.8107 14.2851 24.4713 13.2178 22.6127 15.8614C23.4156 16.3598 23.276 17.513 22.7897 18.5954C25.4904 16.9738 27.8655 15.2154 27.9945 12.3514Z" fill="#F8D29C"/>
<path d="M20.2286 20.1005C20.2282 19.8229 20.2658 19.4697 20.3501 19.0303C15.6172 22.001 14.2411 23.8576 14.8391 26.2384C15.1888 23.4368 17.579 21.6903 20.2286 20.1005Z" fill="#F8D29C"/>
<path d="M14.8391 26.2384C16.3744 26.3041 17.5219 27.1907 17.5865 28.1923C16.0512 27.4698 15.6472 28.652 14.532 28.0774C14.128 29.5058 13.0129 28.8983 12.3987 31C11.5583 30.3104 12.1401 27.9296 13.2714 26.7966C12.2913 22.3939 12.6979 20.0158 15.5664 15.9763C15.5664 13.9567 13.1906 12.8238 13.5462 12.3969C15.5664 11.7073 17.3764 13.9239 18.0714 13.6448C22.1769 11.5319 25.7642 10.1803 27.041 11.5595C27.5742 11.5034 27.7738 11.5541 27.9945 11.8551C28.0019 12.0242 28.0018 12.1896 27.9945 12.3514M14.8391 26.2384C15.1888 23.4368 17.579 21.6903 20.2286 20.1005M14.8391 26.2384C14.2411 23.8576 15.6172 22.001 20.3501 19.0303C20.2658 19.4697 20.2282 19.8229 20.2286 20.1005M27.9945 12.3514C24.8107 14.2851 24.4713 13.2178 22.6127 15.8614C23.4156 16.3598 23.276 17.513 22.7897 18.5954M27.9945 12.3514C27.8655 15.2154 25.4904 16.9738 22.7897 18.5954M20.2286 20.1005C20.2315 21.9836 21.9851 20.3864 22.7897 18.5954" stroke="#965700"/>
</svg>
