<svg width="16" height="20" viewBox="0 0 16 20" fill="none" xmlns="http://www.w3.org/2000/svg">
<path d="M2 0.000488281C2.39189 0.000528672 3.37014 0.111964 3.663 0.315428C3.95585 0.518891 4.14295 0.799253 4.1888 1.10334L4.2 1.2496V18.7508C4.19955 19.0694 4.04339 19.3759 3.76344 19.6076C3.48349 19.8393 2.50088 19.9797 2.09377 19.9983C1.68666 20.017 0.885793 19.9125 0.573068 19.708C0.260343 19.5035 0.0593658 19.2135 0.0112 18.8971L0 18.7508V1.2496C0 0.918055 0.168571 0.600091 0.468629 0.365654C0.768688 0.131217 1.57565 0.000488281 2 0.000488281ZM14 0C14.3919 4.0391e-05 15.1701 0.111964 15.463 0.315428C15.7559 0.518891 15.9429 0.799253 15.9888 1.10334L16 1.2496V18.7508C15.9995 19.0694 15.8434 19.3759 15.5634 19.6076C15.2835 19.8393 14.5009 19.9792 14.0938 19.9979C13.6867 20.0165 12.6858 19.9125 12.3731 19.708C12.0603 19.5035 11.8594 19.2135 11.8112 18.8971L11.8 18.7508V1.2496C11.8 0.918055 11.9686 0.600091 12.2686 0.365654C12.5687 0.131217 13.5757 0 14 0Z" fill="#2D344B"/>
</svg>
