<svg width="69" height="80" viewBox="0 0 69 80" fill="none" xmlns="http://www.w3.org/2000/svg">
<path d="M54.7671 73.3584H56.0679C58.9994 73.3586 61.4315 75.488 61.9067 78.2842H53.0249V75.1006C53.0249 74.1385 53.805 73.3584 54.7671 73.3584Z" fill="#D88F01" stroke="#4D2575" stroke-width="2"/>
<path d="M31.8311 1C43.8545 1.00002 53.6016 10.747 53.6016 22.7705V72.0762C53.6015 75.5045 50.8219 78.2832 47.3936 78.2832H16.2686C12.8403 78.2832 10.0606 75.5045 10.0605 72.0762V22.7705C10.0605 10.747 19.8076 1 31.8311 1Z" fill="#B48FD9" stroke="#4D2575" stroke-width="2"/>
<path d="M9.00024 58V68.8564C6.09296 68.2243 4.57543 65.7628 3.77173 63.0303C3.32959 61.527 3.13477 60.0245 3.052 58.8887C3.02775 58.5558 3.01448 58.2561 3.0061 58H9.00024Z" fill="#B48FD9" stroke="#4D2575" stroke-width="2"/>
<path d="M42.9182 37.2983C48.95 37.2984 53.8401 42.1884 53.8401 48.2202V75.3755C53.8401 76.9814 52.5378 78.2837 50.9319 78.2837H34.9045C33.2986 78.2837 31.9963 76.9814 31.9963 75.3755V48.2202C31.9963 42.1883 36.8863 37.2983 42.9182 37.2983Z" fill="#F1F3FF" stroke="#4D2575" stroke-width="2"/>
<path d="M41.0112 8.31348C45.3836 8.31372 48.9253 11.8638 48.9253 16.2393C48.9251 20.6145 45.3835 24.1638 41.0112 24.1641C36.6388 24.1641 33.0964 20.6147 33.0962 16.2393C33.0962 11.8637 36.6387 8.31348 41.0112 8.31348Z" fill="#F1F3FF" stroke="#4D2575" stroke-width="2"/>
<path d="M39.0001 15.8055C39.0001 15.8055 39.7793 14.5501 40.5859 14.1856C41.3084 13.8592 41.878 13.6849 42.6074 13.9968C43.1641 14.2348 43.3705 14.5846 43.714 15.0835C44.1516 15.7191 44.4066 16.9343 44.4066 16.9343" stroke="#4D2575" stroke-width="3" stroke-linecap="round"/>
<path d="M68 25.0824L51.548 17.9106V25.0824H68Z" fill="#FFAA05" stroke="#4D2575" stroke-width="2"/>
<path d="M68 25.0823L51.548 28.418V25.0823H68Z" fill="#D88F01" stroke="#4D2575" stroke-width="2"/>
<path d="M47.9978 74.0747H52.1599C55.0916 74.0747 57.5245 76.2041 57.9998 79.0005H45.3025V76.77C45.3027 75.2815 46.5093 74.0749 47.9978 74.0747Z" fill="#FFAA05" stroke="#4D2575" stroke-width="2"/>
<path d="M33.4644 35.1938L36.1038 58.9806C36.9065 66.2146 31.6932 72.7317 24.4594 73.5369L20.3665 36.6518L33.4644 35.1938Z" fill="url(#paint0_linear_251_1196)"/>
<defs>
<linearGradient id="paint0_linear_251_1196" x1="24.4594" y1="73.5369" x2="20.3539" y2="36.6532" gradientUnits="userSpaceOnUse">
<stop stop-color="#4D2575"/>
<stop offset="0.745192" stop-color="#A173D0"/>
</linearGradient>
</defs>
</svg>
